<svg width="67" height="16" viewBox="0 0 67 16" fill="none" xmlns="http://www.w3.org/2000/svg">
<path d="M10.5697 8.47387C10.5484 7.17319 11.1083 6.16069 12.2481 5.43595C11.6053 4.49805 10.6573 3.9709 9.4037 3.85304C8.95778 3.81103 8.38766 3.91679 7.69417 4.17299C6.94819 4.4505 6.52821 4.58844 6.43506 4.58844C6.23815 4.58844 5.86005 4.47182 5.29974 4.23673C4.74066 4.00225 4.26369 3.88502 3.86986 3.88502C3.20681 3.89588 2.58992 4.07973 2.02021 4.43656C1.4503 4.79381 0.994582 5.28182 0.652842 5.89936C0.217137 6.66715 0 7.58393 0 8.64952C0 9.60873 0.160146 10.5677 0.481256 11.5276C0.781735 12.4444 1.16576 13.249 1.63149 13.9412C2.04554 14.5702 2.40955 15.0285 2.71942 15.3167C3.16555 15.7641 3.62086 15.9777 4.08782 15.9559C4.38809 15.9449 4.78151 15.8332 5.26869 15.6194C5.72421 15.4179 6.18055 15.3165 6.63668 15.3165C7.06135 15.3165 7.50134 15.4173 7.95788 15.6194C8.46529 15.8332 8.88015 15.9395 9.20126 15.9395C9.67803 15.9186 10.1233 15.7106 10.5384 15.3167C10.6828 15.1882 10.8411 15.0125 11.0119 14.7887C11.209 14.528 11.3983 14.2614 11.5796 13.9893C11.7306 13.7547 11.8732 13.5148 12.0071 13.2699C12.1508 13.0063 12.2779 12.7339 12.3879 12.4544C12.4391 12.3372 12.4857 12.2175 12.5276 12.0949C12.5688 11.9723 12.6103 11.8475 12.6518 11.7194C12.2684 11.5493 11.9211 11.3085 11.6104 10.9992C10.9273 10.3181 10.5801 9.47571 10.5697 8.47387ZM21.8406 11.324H21.7652L18.6086 4.08608H16.1298V15.7641H18.2902V8.20086H18.3905L21.0284 14.2066H22.5435L25.173 8.20086H25.2737V15.7641H27.459V4.08608H24.9971L21.8406 11.324ZM8.61073 2.55831C9.16021 1.86534 9.43495 1.11929 9.43495 0.319738V0.160074C9.43495 0.106374 9.42964 0.0532896 9.41942 0C9.03581 0.0213158 8.62931 0.144087 8.19892 0.367493C7.76914 0.59172 7.41433 0.874564 7.13407 1.215C6.57478 1.88707 6.29473 2.60607 6.29473 3.37364V3.52511C6.29473 3.57348 6.30004 3.6239 6.31026 3.6776C7.17063 3.76266 7.93746 3.38942 8.61073 2.55831ZM52.7082 4.08608H55.1363V15.7643H52.7082V4.08608ZM62.4699 5.94241C63.91 5.94241 64.6715 7.05472 64.6715 8.25251H67V8.0043C67 5.74585 65.2833 3.86391 62.453 3.86391C59.4216 3.86391 57.6133 5.86575 57.6133 9.27957V10.5973C57.6133 14.01 59.4049 15.9871 62.4444 15.9871C65.3501 15.9871 67 14.0785 67 11.9572V11.7006H64.6717C64.6717 12.9074 63.9268 13.9082 62.4871 13.9082C61.0129 13.9082 60.0749 12.8557 60.0749 10.6052V9.28858C60.0749 7.04591 61.0215 5.94241 62.4699 5.94241ZM36.7458 11.4605C36.7458 13.0266 35.8332 13.8903 34.4936 13.8903C33.1454 13.8903 32.2329 13.0348 32.2329 11.4605V4.08608H29.8211V11.8028C29.8211 14.2931 31.5793 15.9869 34.4932 15.9869C37.3989 15.9869 39.1654 14.2931 39.1654 11.8028V4.08608H36.7458V11.4605ZM47.199 8.9627L45.466 8.56958C44.4447 8.35499 43.9087 7.90182 43.9087 7.22566C43.9087 6.32773 44.6369 5.76286 45.8098 5.76286C47.1327 5.76286 47.7941 6.52429 47.8525 7.34577H50.1133C50.0882 5.28366 48.372 3.84648 45.8178 3.84648C43.3982 3.84648 41.4889 5.12154 41.4889 7.41422C41.4889 9.39906 42.8289 10.3224 44.4365 10.6741L46.1528 11.0758C47.3083 11.3411 47.8944 11.7264 47.8944 12.5214C47.8944 13.429 47.1741 14.0451 45.8264 14.0451C44.3777 14.0451 43.6156 13.2749 43.549 12.4105H41.2209C41.255 14.0619 42.3434 15.9869 45.7095 15.9869C48.5395 15.9869 50.2898 14.5753 50.2898 12.2816C50.289 10.1599 48.8738 9.32999 47.199 8.9627Z" fill="black"/>
</svg>
