<svg width="64" height="11" viewBox="0 0 64 11" fill="none" xmlns="http://www.w3.org/2000/svg">
<path d="M5.866 10.196C5.09133 10.196 4.37267 10.0747 3.71 9.832C3.05667 9.58 2.48733 9.22533 2.002 8.768C1.526 8.31067 1.15267 7.774 0.882 7.158C0.611333 6.53267 0.476 5.84667 0.476 5.1C0.476 4.35333 0.611333 3.672 0.882 3.056C1.15267 2.43067 1.526 1.88933 2.002 1.432C2.48733 0.974666 3.05667 0.624666 3.71 0.381999C4.37267 0.129999 5.09133 0.00399935 5.866 0.00399935C6.77133 0.00399935 7.57867 0.162666 8.288 0.48C9.00667 0.797333 9.604 1.25467 10.08 1.852L8.316 3.448C7.99867 3.07467 7.64867 2.79 7.266 2.594C6.89267 2.398 6.47267 2.3 6.006 2.3C5.60467 2.3 5.236 2.36533 4.9 2.496C4.564 2.62667 4.27467 2.818 4.032 3.07C3.79867 3.31267 3.612 3.60667 3.472 3.952C3.34133 4.29733 3.276 4.68 3.276 5.1C3.276 5.52 3.34133 5.90267 3.472 6.248C3.612 6.59333 3.79867 6.892 4.032 7.144C4.27467 7.38667 4.564 7.57333 4.9 7.704C5.236 7.83467 5.60467 7.9 6.006 7.9C6.47267 7.9 6.89267 7.802 7.266 7.606C7.64867 7.41 7.99867 7.12533 8.316 6.752L10.08 8.348C9.604 8.936 9.00667 9.39333 8.288 9.72C7.57867 10.0373 6.77133 10.196 5.866 10.196ZM15.7422 10.196C14.2956 10.196 13.1662 9.79933 12.3542 9.006C11.5422 8.21267 11.1362 7.088 11.1362 5.632V0.199999H13.9082V5.548C13.9082 6.388 14.0716 6.99 14.3982 7.354C14.7342 7.718 15.1916 7.9 15.7702 7.9C16.3489 7.9 16.8016 7.718 17.1282 7.354C17.4549 6.99 17.6182 6.388 17.6182 5.548V0.199999H20.3482V5.632C20.3482 7.088 19.9422 8.21267 19.1302 9.006C18.3182 9.79933 17.1889 10.196 15.7422 10.196ZM25.6701 10.196C24.8674 10.196 24.0928 10.098 23.3461 9.902C22.6088 9.69667 22.0068 9.43533 21.5401 9.118L22.4501 7.074C22.8888 7.354 23.3928 7.58733 23.9621 7.774C24.5408 7.95133 25.1148 8.04 25.6841 8.04C26.0668 8.04 26.3748 8.00733 26.6081 7.942C26.8414 7.86733 27.0094 7.774 27.1121 7.662C27.2241 7.54067 27.2801 7.40067 27.2801 7.242C27.2801 7.018 27.1774 6.84067 26.9721 6.71C26.7668 6.57933 26.5008 6.472 26.1741 6.388C25.8474 6.304 25.4834 6.22 25.0821 6.136C24.6901 6.052 24.2934 5.94467 23.8921 5.814C23.5001 5.68333 23.1408 5.51533 22.8141 5.31C22.4874 5.09533 22.2214 4.82 22.0161 4.484C21.8108 4.13867 21.7081 3.70467 21.7081 3.182C21.7081 2.594 21.8668 2.062 22.1841 1.586C22.5108 1.11 22.9961 0.727333 23.6401 0.438C24.2841 0.148666 25.0868 0.00399935 26.0481 0.00399935C26.6921 0.00399935 27.3221 0.0786662 27.9381 0.228C28.5634 0.368 29.1188 0.577999 29.6041 0.857999L28.7501 2.916C28.2834 2.664 27.8214 2.47733 27.3641 2.356C26.9068 2.22533 26.4634 2.16 26.0341 2.16C25.6514 2.16 25.3434 2.202 25.1101 2.286C24.8768 2.36067 24.7088 2.46333 24.6061 2.594C24.5034 2.72467 24.4521 2.874 24.4521 3.042C24.4521 3.25667 24.5501 3.42933 24.7461 3.56C24.9514 3.68133 25.2174 3.784 25.5441 3.868C25.8801 3.94267 26.2441 4.022 26.6361 4.106C27.0374 4.19 27.4341 4.29733 27.8261 4.428C28.2274 4.54933 28.5914 4.71733 28.9181 4.932C29.2448 5.13733 29.5061 5.41267 29.7021 5.758C29.9074 6.094 30.0101 6.51867 30.0101 7.032C30.0101 7.60133 29.8468 8.12867 29.5201 8.614C29.2028 9.09 28.7221 9.47267 28.0781 9.762C27.4434 10.0513 26.6408 10.196 25.6701 10.196ZM33.2398 10V2.398H30.2298V0.199999H39.0078V2.398H36.0118V10H33.2398ZM44.8458 10.196C44.0618 10.196 43.3385 10.07 42.6758 9.818C42.0132 9.566 41.4345 9.21133 40.9398 8.754C40.4545 8.28733 40.0765 7.746 39.8058 7.13C39.5352 6.514 39.3998 5.83733 39.3998 5.1C39.3998 4.36267 39.5352 3.686 39.8058 3.07C40.0765 2.454 40.4545 1.91733 40.9398 1.46C41.4345 0.993333 42.0132 0.634 42.6758 0.381999C43.3385 0.129999 44.0618 0.00399935 44.8458 0.00399935C45.6392 0.00399935 46.3625 0.129999 47.0158 0.381999C47.6785 0.634 48.2525 0.993333 48.7378 1.46C49.2232 1.91733 49.6012 2.454 49.8718 3.07C50.1518 3.686 50.2918 4.36267 50.2918 5.1C50.2918 5.83733 50.1518 6.51867 49.8718 7.144C49.6012 7.76 49.2232 8.29667 48.7378 8.754C48.2525 9.21133 47.6785 9.566 47.0158 9.818C46.3625 10.07 45.6392 10.196 44.8458 10.196ZM44.8458 7.9C45.2192 7.9 45.5645 7.83467 45.8818 7.704C46.2085 7.57333 46.4885 7.38667 46.7218 7.144C46.9645 6.892 47.1512 6.59333 47.2818 6.248C47.4218 5.90267 47.4918 5.52 47.4918 5.1C47.4918 4.67067 47.4218 4.288 47.2818 3.952C47.1512 3.60667 46.9645 3.31267 46.7218 3.07C46.4885 2.818 46.2085 2.62667 45.8818 2.496C45.5645 2.36533 45.2192 2.3 44.8458 2.3C44.4725 2.3 44.1225 2.36533 43.7958 2.496C43.4785 2.62667 43.1985 2.818 42.9558 3.07C42.7225 3.31267 42.5358 3.60667 42.3958 3.952C42.2652 4.288 42.1998 4.67067 42.1998 5.1C42.1998 5.52 42.2652 5.90267 42.3958 6.248C42.5358 6.59333 42.7225 6.892 42.9558 7.144C43.1985 7.38667 43.4785 7.57333 43.7958 7.704C44.1225 7.83467 44.4725 7.9 44.8458 7.9ZM51.7437 10V0.199999H54.0257L58.0857 6.864H56.8817L60.8297 0.199999H63.1117L63.1397 10H60.5917L60.5637 4.078H60.9977L58.0437 9.034H56.8117L53.7737 4.078H54.3057V10H51.7437Z" fill="black"/>
</svg>
