<svg width="22" height="21" viewBox="0 0 22 21" fill="none" xmlns="http://www.w3.org/2000/svg">
<path d="M20.4573 12.9528C21.1765 8.51798 18.758 4.27638 14.7546 2.56969C14.1652 1.06252 12.7111 0 11 0C9.29195 0 7.83548 1.0602 7.24535 2.56973C3.24006 4.27719 0.823797 8.52017 1.54266 12.9528C0.580938 13.7117 0 14.8878 0 16.1277C0 19.2436 3.39036 21.1732 6.0503 19.6213C9.03697 21.4294 12.8634 21.4896 15.9496 19.621C18.6041 21.1698 22 19.249 22 16.1277C22 14.8876 21.4189 13.7114 20.4573 12.9528ZM11 1.39992C12.4172 1.39992 13.6324 2.55256 13.6324 4.03654C13.6324 5.49039 12.4515 6.67315 11 6.67315C9.54852 6.67315 8.36756 5.49034 8.36756 4.03654C8.36756 2.56065 9.57443 1.39992 11 1.39992ZM4.03025 18.7643C2.57873 18.7643 1.39777 17.5815 1.39777 16.1277C1.39777 14.6349 2.60756 13.4911 4.03025 13.4911C5.48174 13.4911 6.66269 14.6739 6.66269 16.1277C6.66269 17.6094 5.46146 18.7643 4.03025 18.7643ZM14.823 18.6519C12.4407 19.9151 9.56282 19.917 7.17698 18.6521C9.62728 15.607 6.66394 11.1108 2.8603 12.2651C2.5138 8.94722 4.18365 5.83932 6.97615 4.26127C7.09302 6.38287 8.85302 8.07307 11 8.07307C13.1471 8.07307 14.9071 6.38287 15.0239 4.26127C17.8435 5.8546 19.4833 8.97666 19.1398 12.2651C15.3303 11.1089 12.379 15.613 14.823 18.6519ZM17.9697 18.7643C16.5406 18.7643 15.3373 17.6098 15.3373 16.1277C15.3373 14.6739 16.5183 13.4911 17.9697 13.4911C19.389 13.4911 20.6022 14.6313 20.6022 16.1277C20.6022 17.5815 19.4213 18.7643 17.9697 18.7643Z" fill="black"/>
</svg>
