<svg width="85" height="23" viewBox="0 0 85 23" fill="none" xmlns="http://www.w3.org/2000/svg">
<g clip-path="url(#clip0_21_175)">
<path d="M11.6877 21.5175C10.4091 21.7423 9.10795 21.8097 7.76198 21.9892L3.65658 9.95025V22.5059C2.37792 22.6406 1.21142 22.8203 0 23V0H3.40996L8.076 13.05V0H11.6877V21.5175ZM18.7543 8.42286C20.1453 8.42286 22.2764 8.35545 23.555 8.35545V11.9491C21.9622 11.9491 20.1003 11.9491 18.7543 12.0165V17.3623C20.8631 17.2276 22.9718 17.0478 25.1029 16.9804V20.4391L15.1649 21.2254V0H25.1029V3.59376H18.7543V8.42286ZM38.4507 3.59384H34.7268V20.1251C33.5154 20.1251 32.304 20.1251 31.1376 20.1699V3.59384H27.4137V0H38.4509L38.4507 3.59384ZM44.2833 8.17585H49.1963V11.7695H44.2833V19.9229H40.7611V0H50.7891V3.59376H44.2833V8.17585ZM56.6217 16.7783C58.6632 16.8231 60.7269 16.9806 62.7236 17.0927V20.6416C59.5157 20.4393 56.3077 20.2374 53.0324 20.1699V0H56.6217V16.7783ZM65.7521 20.8887C66.8962 20.9562 68.1076 21.0236 69.2741 21.1581V0H65.7521V20.8887ZM85 0L80.4459 10.9385L85 23C83.6539 22.8203 82.3079 22.5732 80.9618 22.3486L78.3821 15.7003L75.7577 21.8097C74.4563 21.5849 73.2 21.5175 71.8991 21.3378L76.5203 10.8036L72.3476 0H76.206L78.5615 6.04201L81.0742 0H85V0Z" fill="white"/>
</g>
<defs>
<clipPath id="clip0_21_175">
<rect width="85" height="23" fill="white"/>
</clipPath>
</defs>
</svg>
