<svg width="68" height="16" viewBox="0 0 68 16" fill="none" xmlns="http://www.w3.org/2000/svg">
<path d="M9.3502 14.4703C8.32728 14.6214 7.28636 14.6668 6.20958 14.7875L2.92526 6.69143V15.135C1.90234 15.2256 0.969133 15.3464 0 15.4672V0H2.72797L6.4608 8.77598V0H9.3502V14.4703ZM15.0034 5.66428C16.1162 5.66428 17.8211 5.61895 18.844 5.61895V8.03565C17.5698 8.03565 16.0803 8.03565 15.0034 8.08098V11.676C16.6905 11.5854 18.3775 11.4644 20.0823 11.4191V13.7451L12.1319 14.2739V0H20.0823V2.41676H15.0034V5.66428ZM30.7606 2.41682H27.7815V13.5339C26.8123 13.5339 25.8432 13.5339 24.9101 13.564V2.41682H21.931V0H30.7607L30.7606 2.41682ZM35.4267 5.49817H39.3571V7.91487H35.4267V13.398H32.6089V0H40.6313V2.41676H35.4267V5.49817ZM45.2974 11.2832C46.9306 11.3133 48.5816 11.4193 50.1789 11.4947V13.8812C47.6126 13.7452 45.0462 13.6094 42.426 13.564V0H45.2974V11.2832ZM52.6017 14.0474C53.5169 14.0928 54.4861 14.1381 55.4193 14.2286V0H52.6017V14.0474ZM68 0L64.3568 7.35602L68 15.4672C66.9231 15.3464 65.8463 15.1802 64.7695 15.0292L62.7057 10.5583L60.6061 14.6668C59.565 14.5156 58.56 14.4703 57.5193 14.3494L61.2163 7.26531L57.8781 0H60.9648L62.8492 4.06318L64.8593 0H68V0Z" fill="#D81F26"/>
</svg>
