<svg width="75" height="24" viewBox="0 0 75 24" fill="none" xmlns="http://www.w3.org/2000/svg">
<path d="M11.2472 0C5.03566 0 0 5.37268 0 12.0001C0 18.6278 5.03566 24 11.2472 24C17.4594 24 22.4945 18.6278 22.4945 12.0001C22.4945 5.37311 17.4594 0.000573189 11.247 0.000573189L11.2472 0ZM16.4051 17.3075C16.2036 17.6601 15.7711 17.7718 15.4407 17.5555C12.8 15.8344 9.47568 15.4447 5.56066 16.399C5.1834 16.4907 4.80734 16.2385 4.72139 15.8359C4.63503 15.4332 4.87047 15.032 5.24867 14.9403C9.53303 13.8959 13.208 14.3456 16.1727 16.2787C16.5031 16.495 16.6079 16.955 16.4051 17.3075ZM17.7817 14.0401C17.5278 14.4803 16.9879 14.6193 16.5756 14.3484C13.5524 12.3658 8.94396 11.7916 5.36807 12.9497C4.90431 13.0992 4.4145 12.8203 4.27375 12.3264C4.13407 11.8316 4.39556 11.3099 4.85851 11.1595C8.94316 9.83713 14.0211 10.4777 17.4929 12.754C17.9052 13.0248 18.0355 13.6009 17.7817 14.0402V14.0401ZM17.8999 10.6376C14.275 8.34038 8.29432 8.12916 4.8334 9.24989C4.27764 9.42973 3.68992 9.09499 3.5215 8.50202C3.35308 7.90877 3.66655 7.28212 4.22271 7.10185C8.19561 5.81504 14.8001 6.06366 18.9735 8.70708C19.4745 9.02363 19.6383 9.71246 19.3415 10.2451C19.046 10.7785 18.3987 10.9543 17.9004 10.6376H17.8999ZM30.5998 11.0778C28.6578 10.5837 28.3126 10.2369 28.3126 9.50826C28.3126 8.81986 28.9197 8.35657 29.8235 8.35657C30.6992 8.35657 31.5668 8.70837 32.4774 9.4326C32.5043 9.45452 32.5392 9.46326 32.5728 9.45753C32.6077 9.45209 32.6373 9.43217 32.6574 9.40222L33.6056 7.97612C33.6445 7.91736 33.6338 7.8364 33.5814 7.79155C32.4976 6.86398 31.2781 6.41302 29.8518 6.41302C27.7552 6.41302 26.29 7.75558 26.29 9.67649C26.29 11.7364 27.5538 12.4658 29.7376 13.0288C31.595 13.4855 31.9093 13.8681 31.9093 14.5519C31.9093 15.31 31.2754 15.7814 30.2547 15.7814C29.1211 15.7814 28.1958 15.373 27.1616 14.4187C27.1361 14.3943 27.1012 14.3843 27.0689 14.3857C27.034 14.3886 27.0031 14.4058 26.9816 14.433L25.9179 15.7829C25.8736 15.8402 25.879 15.9233 25.93 15.972C27.1334 17.1184 28.6135 17.7231 30.2117 17.7231C32.4707 17.7231 33.9306 16.4062 33.9306 14.3671C33.9346 12.6465 32.969 11.6936 30.6039 11.0797L30.5998 11.0778ZM39.0423 9.03437C38.0632 9.03437 37.2601 9.44593 36.5966 10.2892V9.34003C36.5966 9.26508 36.5402 9.20404 36.4703 9.20404H34.7311C34.6612 9.20404 34.6048 9.26508 34.6048 9.34003V19.8869C34.6048 19.9614 34.6612 20.023 34.7311 20.023H36.4703C36.5402 20.023 36.5966 19.9614 36.5966 19.8869V16.5581C37.2601 17.3505 38.0632 17.7389 39.0423 17.7389C40.8621 17.7389 42.7048 16.2443 42.7048 13.3871C42.7075 10.5293 40.8648 9.03423 39.0436 9.03423L39.0423 9.03437ZM40.6822 13.3871C40.6822 14.8414 39.8428 15.8574 38.6394 15.8574C37.4508 15.8574 36.5536 14.7955 36.5536 13.3871C36.5536 11.9784 37.4508 10.9169 38.6394 10.9169C39.8226 10.9167 40.6822 11.9554 40.6822 13.3869V13.3871ZM47.4257 9.03437C45.082 9.03437 43.2461 10.9597 43.2461 13.4181C43.2461 15.8502 45.0699 17.7546 47.3975 17.7546C49.7492 17.7546 51.5905 15.8359 51.5905 13.3871C51.5905 10.9465 49.7612 9.03466 47.4257 9.03466V9.03437ZM47.4257 15.8717C46.1793 15.8717 45.2392 14.8027 45.2392 13.3863C45.2392 11.9635 46.1471 10.9311 47.3975 10.9311C48.6519 10.9311 49.5974 11.9996 49.5974 13.4174C49.5974 14.84 48.6841 15.8717 47.4257 15.8717ZM56.5947 9.20404H54.6809V7.11676C54.6809 7.04196 54.6245 6.98091 54.5546 6.98091H52.8154C52.7455 6.98091 52.6878 7.04196 52.6878 7.11676V9.20404H51.8524C51.7825 9.20404 51.7261 9.26508 51.7261 9.34003V10.9345C51.7261 11.0093 51.7825 11.0705 51.8524 11.0705H52.6878V15.1968C52.6878 16.8633 53.4654 17.7088 55.0005 17.7088C55.6237 17.7088 56.1408 17.5712 56.6283 17.276C56.6686 17.2531 56.6928 17.2072 56.6928 17.1585V15.6396C56.6928 15.5937 56.6699 15.5493 56.6323 15.5249C56.5947 15.4991 56.5477 15.4977 56.5088 15.5192C56.1744 15.6983 55.8507 15.7814 55.488 15.7814C54.9307 15.7814 54.6809 15.5106 54.6809 14.9059V11.0712H56.5947C56.6646 11.0712 56.721 11.0102 56.721 10.9352V9.34089C56.7237 9.26594 56.6673 9.2049 56.5961 9.2049L56.5947 9.20404ZM63.2617 9.21221V8.95585C63.2617 8.20167 63.533 7.86535 64.14 7.86535C64.5027 7.86535 64.7941 7.94216 65.1205 8.05823C65.1608 8.0717 65.2024 8.06496 65.2346 8.03931C65.2682 8.01366 65.287 7.97253 65.287 7.92897V6.36559C65.287 6.30583 65.2521 6.25296 65.197 6.23533C64.8532 6.12599 64.4127 6.01379 63.7519 6.01379C62.1469 6.01379 61.2968 6.97876 61.2968 8.80338V9.19601H60.4614C60.3916 9.19601 60.3338 9.25706 60.3338 9.33186V10.9345C60.3338 11.0093 60.3916 11.0705 60.4614 11.0705H61.2968V17.4336C61.2968 17.5096 61.3545 17.5698 61.4244 17.5698H63.1623C63.2335 17.5698 63.2899 17.5096 63.2899 17.4336V11.0709H64.9136L67.401 17.4336C67.1189 18.1014 66.8409 18.2347 66.4622 18.2347C66.156 18.2347 65.8323 18.1372 65.5032 17.9438C65.4723 17.9266 65.4347 17.9237 65.4025 17.9338C65.3689 17.9467 65.3407 17.9725 65.3273 18.0068L64.7377 19.3868C64.7095 19.4527 64.7337 19.5287 64.7928 19.5631C65.4079 19.9184 65.9626 20.0703 66.6489 20.0703C67.9328 20.0703 68.6433 19.4312 69.2678 17.7145L72.2843 9.39792C72.3005 9.35608 72.2951 9.30879 72.2709 9.27167C72.2481 9.23485 72.2091 9.21264 72.1675 9.21264H70.357C70.302 9.21264 70.2536 9.24946 70.2362 9.30377L68.3814 14.9546L66.3507 9.30005C66.3319 9.24746 66.2849 9.21264 66.2325 9.21264H63.2617V9.21221ZM59.3963 9.20404H57.6571C57.5872 9.20404 57.5295 9.26508 57.5295 9.34003V17.4336C57.5295 17.5096 57.5872 17.5698 57.6571 17.5698H59.3963C59.4662 17.5698 59.5239 17.5096 59.5239 17.4336V9.3406C59.5239 9.26566 59.4675 9.20461 59.3963 9.20461V9.20404ZM58.5368 5.51855C57.8478 5.51855 57.2891 6.11353 57.2891 6.8485C57.2891 7.58391 57.8478 8.1796 58.5368 8.1796C59.2258 8.1796 59.7831 7.58391 59.7831 6.8485C59.7831 6.11367 59.2244 5.51855 58.5368 5.51855ZM73.7698 11.8065C73.0821 11.8065 72.5462 11.2168 72.5462 10.5007C72.5462 9.78468 73.0888 9.18828 73.7765 9.18828C74.4641 9.18828 75 9.7778 75 10.4933C75 11.2094 74.4574 11.8065 73.7698 11.8065ZM73.7765 9.3181C73.1493 9.3181 72.6752 9.84974 72.6752 10.5007C72.6752 11.1515 73.1466 11.6759 73.7698 11.6759C74.397 11.6759 74.8711 11.1447 74.8711 10.4933C74.8711 9.84257 74.3997 9.3181 73.7765 9.3181ZM74.0478 10.6276L74.3943 11.1446H74.1015L73.7899 10.6703H73.5226V11.1446H73.2782V9.77408H73.8503C74.1498 9.77408 74.3459 9.93701 74.3459 10.2113C74.3473 10.436 74.2251 10.5733 74.0491 10.6276H74.0478ZM73.8409 10.0092H73.5226V10.4427H73.8409C73.9994 10.4427 74.0948 10.3597 74.0948 10.2258C74.0948 10.0847 73.9994 10.0092 73.8409 10.0092Z" fill="white"/>
</svg>
