<svg width="68" height="18" viewBox="0 0 68 18" fill="none" xmlns="http://www.w3.org/2000/svg">
<path d="M10.1974 0C4.56567 0 0 4.02951 0 9.00005C0 13.9708 4.56567 18 10.1974 18C15.8298 18 20.395 13.9708 20.395 9.00005C20.395 4.02983 15.8298 0.000429892 10.1973 0.000429892L10.1974 0ZM14.8739 12.9807C14.6913 13.245 14.2992 13.3289 13.9996 13.1666C11.6053 11.8758 8.59128 11.5835 5.04167 12.2993C4.69962 12.3681 4.35866 12.1789 4.28072 11.8769C4.20243 11.5749 4.41589 11.274 4.7588 11.2052C8.64328 10.4219 11.9753 10.7592 14.6633 12.209C14.9628 12.3713 15.0578 12.7163 14.8739 12.9807ZM16.1221 10.53C15.8919 10.8602 15.4024 10.9645 15.0286 10.7613C12.2875 9.27433 8.10919 8.84368 4.86705 9.71228C4.44658 9.82438 4.00248 9.61523 3.87486 9.24477C3.74822 8.87366 3.98531 8.48246 4.40505 8.36961C8.10846 7.37785 12.7125 7.85825 15.8603 9.56547C16.2341 9.7686 16.3522 10.2006 16.1221 10.5302V10.53ZM16.2292 7.9782C12.9426 6.25529 7.52019 6.09687 4.38228 6.93742C3.87839 7.0723 3.34553 6.82124 3.19283 6.37652C3.04013 5.93158 3.32434 5.46159 3.82859 5.32639C7.43069 4.36128 13.4188 4.54775 17.2027 6.53031C17.6569 6.76772 17.8054 7.28435 17.5363 7.68383C17.2684 8.08384 16.6815 8.21571 16.2297 7.9782H16.2292ZM27.7439 8.30835C25.983 7.93778 25.6701 7.6777 25.6701 7.1312C25.6701 6.61489 26.2205 6.26743 27.04 6.26743C27.834 6.26743 28.6206 6.53128 29.4462 7.07445C29.4706 7.09089 29.5022 7.09745 29.5327 7.09315C29.5643 7.08907 29.5911 7.07413 29.6094 7.05166L30.4691 5.98209C30.5044 5.93802 30.4946 5.8773 30.4472 5.84366C29.4645 5.14799 28.3588 4.80977 27.0656 4.80977C25.1647 4.80977 23.8362 5.81669 23.8362 7.25737C23.8362 8.8023 24.9821 9.34934 26.9621 9.77161C28.6462 10.1141 28.9311 10.4011 28.9311 10.9139C28.9311 11.4825 28.3564 11.8361 27.4309 11.8361C26.4032 11.8361 25.5642 11.5298 24.6265 10.814C24.6034 10.7957 24.5717 10.7882 24.5425 10.7893C24.5108 10.7914 24.4828 10.8043 24.4634 10.8247L23.4989 11.8371C23.4587 11.8801 23.4636 11.9425 23.5099 11.979C24.601 12.8388 25.9429 13.2923 27.3919 13.2923C29.4401 13.2923 30.7638 12.3047 30.7638 10.7753C30.7674 9.48487 29.8919 8.77017 27.7475 8.30975L27.7439 8.30835ZM35.3984 6.77578C34.5106 6.77578 33.7825 7.08444 33.1809 7.71693V7.00502C33.1809 6.94881 33.1298 6.90303 33.0664 6.90303H31.4895C31.4262 6.90303 31.3751 6.94881 31.3751 7.00502V14.9152C31.3751 14.9711 31.4262 15.0173 31.4895 15.0173H33.0664C33.1298 15.0173 33.1809 14.9711 33.1809 14.9152V12.4186C33.7825 13.0129 34.5106 13.3042 35.3984 13.3042C37.0483 13.3042 38.719 12.1832 38.719 10.0403C38.7215 7.89694 37.0508 6.77567 35.3996 6.77567L35.3984 6.77578ZM36.8852 10.0403C36.8852 11.131 36.1241 11.893 35.033 11.893C33.9554 11.893 33.1419 11.0966 33.1419 10.0403C33.1419 8.98382 33.9554 8.18766 35.033 8.18766C36.1058 8.18755 36.8852 8.96652 36.8852 10.0402V10.0403ZM42.9993 6.77578C40.8744 6.77578 39.2098 8.2198 39.2098 10.0636C39.2098 11.8877 40.8634 13.316 42.9737 13.316C45.1059 13.316 46.7754 11.8769 46.7754 10.0403C46.7754 8.20991 45.1169 6.776 42.9993 6.776V6.77578ZM42.9993 11.9038C41.8692 11.9038 41.0168 11.102 41.0168 10.0398C41.0168 8.97265 41.84 8.1983 42.9737 8.1983C44.111 8.1983 44.9683 8.99973 44.9683 10.0631C44.9683 11.13 44.1403 11.9038 42.9993 11.9038ZM51.3126 6.90303H49.5773V5.33757C49.5773 5.28147 49.5262 5.23568 49.4629 5.23568H47.8859C47.8226 5.23568 47.7702 5.28147 47.7702 5.33757V6.90303H47.0128C46.9495 6.90303 46.8984 6.94881 46.8984 7.00502V8.20088C46.8984 8.25698 46.9495 8.30287 47.0128 8.30287H47.7702V11.3976C47.7702 12.6475 48.4753 13.2816 49.8671 13.2816C50.4322 13.2816 50.901 13.1784 51.343 12.957C51.3795 12.9398 51.4014 12.9054 51.4014 12.8689V11.7297C51.4014 11.6953 51.3807 11.662 51.3467 11.6437C51.3126 11.6243 51.2699 11.6233 51.2346 11.6394C50.9314 11.7737 50.6379 11.8361 50.3092 11.8361C49.8038 11.8361 49.5773 11.6329 49.5773 11.1794V8.30341H51.3126C51.3759 8.30341 51.427 8.25763 51.427 8.20142V7.00567C51.4295 6.94946 51.3783 6.90367 51.3138 6.90367L51.3126 6.90303ZM57.3572 6.90916V6.71689C57.3572 6.15125 57.6032 5.89901 58.1536 5.89901C58.4824 5.89901 58.7467 5.95662 59.0426 6.04367C59.0791 6.05377 59.1168 6.04872 59.1461 6.02948C59.1765 6.01025 59.1935 5.9794 59.1935 5.94673V4.77419C59.1935 4.72938 59.1619 4.68972 59.112 4.6765C58.8002 4.5945 58.4008 4.51034 57.8017 4.51034C56.3465 4.51034 55.5757 5.23407 55.5757 6.60253V6.89701H54.8183C54.755 6.89701 54.7026 6.94279 54.7026 6.9989V8.20088C54.7026 8.25698 54.755 8.30287 54.8183 8.30287H55.5757V13.0752C55.5757 13.1322 55.6281 13.1773 55.6914 13.1773H57.2671C57.3317 13.1773 57.3828 13.1322 57.3828 13.0752V8.3032H58.855L61.1102 13.0752C60.8545 13.5761 60.6024 13.676 60.259 13.676C59.9814 13.676 59.6879 13.6029 59.3896 13.4578C59.3616 13.4449 59.3275 13.4428 59.2983 13.4503C59.2678 13.46 59.2423 13.4793 59.2301 13.5051L58.6955 14.5401C58.6699 14.5895 58.6919 14.6465 58.7454 14.6723C59.3031 14.9388 59.8061 15.0528 60.4283 15.0528C61.5924 15.0528 62.2366 14.5734 62.8028 13.2859L65.5378 7.04844C65.5524 7.01706 65.5475 6.98159 65.5256 6.95376C65.5049 6.92614 65.4696 6.90948 65.4319 6.90948H63.7904C63.7405 6.90948 63.6966 6.9371 63.6808 6.97783L61.9991 11.2159L60.158 6.97504C60.1409 6.93559 60.0983 6.90948 60.0508 6.90948H57.3572V6.90916ZM53.8527 6.90303H52.2758C52.2124 6.90303 52.1601 6.94881 52.1601 7.00502V13.0752C52.1601 13.1322 52.2124 13.1773 52.2758 13.1773H53.8527C53.916 13.1773 53.9684 13.1322 53.9684 13.0752V7.00545C53.9684 6.94924 53.9172 6.90346 53.8527 6.90346V6.90303ZM53.0734 4.13892C52.4487 4.13892 51.9421 4.58515 51.9421 5.13638C51.9421 5.68793 52.4487 6.1347 53.0734 6.1347C53.698 6.1347 54.2034 5.68793 54.2034 5.13638C54.2034 4.58525 53.6968 4.13892 53.0734 4.13892ZM66.8846 8.85486C66.2611 8.85486 65.7752 8.4126 65.7752 7.87556C65.7752 7.33851 66.2672 6.89121 66.8907 6.89121C67.5141 6.89121 68 7.33335 68 7.86997C68 8.40701 67.508 8.85486 66.8846 8.85486ZM66.8907 6.98858C66.322 6.98858 65.8922 7.38731 65.8922 7.87556C65.8922 8.3636 66.3196 8.75695 66.8846 8.75695C67.4533 8.75695 67.8831 8.35854 67.8831 7.86997C67.8831 7.38193 67.4557 6.98858 66.8907 6.98858ZM67.1367 7.97067L67.4508 8.35844H67.1854L66.9028 8.0027H66.6605V8.35844H66.4389V7.33056H66.9576C67.2292 7.33056 67.407 7.45276 67.407 7.65846C67.4082 7.82698 67.2974 7.92994 67.1379 7.97067H67.1367ZM66.9491 7.50692H66.6605V7.83203H66.9491C67.0928 7.83203 67.1793 7.7698 67.1793 7.66932C67.1793 7.56356 67.0928 7.50692 66.9491 7.50692Z" fill="#159743"/>
</svg>
