<svg width="31" height="34" viewBox="0 0 31 34" fill="none" xmlns="http://www.w3.org/2000/svg">
<path d="M30.707 1.29565C30.4266 0.739656 29.9365 0.317078 29.3441 0.120472C28.7516 -0.0761346 28.1052 -0.0307435 27.5463 0.246704C27.4228 0.308055 27.3049 0.379925 27.1939 0.461511L6.56541 10.6797L6.11703 9.77974C6.03733 9.62048 5.89741 9.49929 5.72806 9.44284C5.55871 9.38638 5.37379 9.39928 5.21398 9.4787C5.12339 9.52213 5.0442 9.58602 4.98271 9.66528C4.96239 9.69252 4.94349 9.72078 4.92608 9.74995L3.08852 12.5111L1.27928 15.2267C1.22411 15.2836 1.17985 15.35 1.1487 15.4227C1.10915 15.5125 1.08988 15.6099 1.09223 15.7079C1.09459 15.8059 1.11853 15.9022 1.16235 15.99C1.20617 16.0778 1.2688 16.155 1.34583 16.216C1.42285 16.277 1.51238 16.3204 1.60809 16.3431C1.68515 16.3625 1.76511 16.3678 1.84408 16.3588L5.10857 16.5532L8.39825 16.7555L8.55557 16.7649C8.66625 16.7587 8.77368 16.7253 8.86831 16.6677C8.96295 16.6102 9.04186 16.5302 9.09805 16.435C9.15424 16.3398 9.18596 16.2322 9.1904 16.1218C9.19484 16.0114 9.17187 15.9016 9.12352 15.8022L6.93512 11.412L8.65154 14.8551L29.6466 4.4472C30.2063 4.16912 30.6323 3.68102 30.8311 3.0901C31.0299 2.49918 30.9853 1.85378 30.707 1.29565Z" fill="#BAFA3D"/>
<path d="M0.239474 32.6873C0.514882 33.2445 1.00034 33.6706 1.58987 33.8724C2.17939 34.0743 2.82508 34.0354 3.38598 33.7644C3.50958 33.703 3.62796 33.6317 3.73996 33.5512L24.4361 23.4521L24.8798 24.3537C24.9302 24.4553 25.0055 24.5425 25.0988 24.6074C25.192 24.6723 25.3002 24.7127 25.4133 24.7248C25.5263 24.737 25.6406 24.7206 25.7457 24.6771C25.8507 24.6336 25.943 24.5644 26.0141 24.476C26.0347 24.449 26.0537 24.4207 26.0707 24.3913L27.9224 21.6443L29.7474 18.9396C29.803 18.8834 29.8478 18.8175 29.8796 18.7452C29.9194 18.6554 29.9391 18.558 29.9372 18.4599C29.9353 18.3618 29.9118 18.2652 29.8685 18.1771C29.8252 18.0889 29.763 18.0113 29.6864 17.9496C29.6097 17.8879 29.5205 17.8437 29.4249 17.8201C29.3482 17.8015 29.2689 17.7962 29.1905 17.8044L25.926 17.5849L22.6379 17.3623L22.4805 17.3513C22.3881 17.356 22.2977 17.3795 22.2147 17.4203C22.1347 17.4585 22.063 17.5121 22.0038 17.578C21.9447 17.6439 21.8992 17.7208 21.8699 17.8043C21.8407 17.8878 21.8283 17.9762 21.8335 18.0645C21.8386 18.1528 21.8612 18.2392 21.9 18.3187L24.0617 22.7089L22.3673 19.2595L1.3203 29.5435C0.759074 29.818 0.330055 30.3032 0.127416 30.8926C-0.0752224 31.482 -0.0349209 32.1274 0.239474 32.6873Z" fill="#BAFA3D"/>
</svg>
