<svg width="98" height="16" viewBox="0 0 98 16" fill="none" xmlns="http://www.w3.org/2000/svg">
<g clip-path="url(#clip0_84_1069)">
<path d="M14.3902 0.612928C14.2588 0.351372 14.0291 0.15258 13.7515 0.0600912C13.4739 -0.0323979 13.171 -0.0110446 12.9091 0.119474C12.8512 0.148335 12.796 0.182145 12.7439 0.220525L3.07724 5.02746L2.86712 4.60408C2.82978 4.52916 2.76421 4.47215 2.68485 4.44559C2.60549 4.41903 2.51884 4.4251 2.44395 4.46246C2.40149 4.48289 2.36439 4.51294 2.33557 4.55023C2.32605 4.56305 2.31719 4.57634 2.30903 4.59006L1.44794 5.88897L0.600108 7.1665C0.574255 7.19323 0.553516 7.22448 0.538917 7.2587C0.520385 7.30093 0.511352 7.34673 0.512458 7.39284C0.513563 7.43896 0.52478 7.48427 0.545314 7.52557C0.565849 7.56687 0.5952 7.60315 0.631294 7.63185C0.667387 7.66055 0.709342 7.68097 0.754191 7.69167C0.790305 7.70079 0.827773 7.70329 0.864778 7.69904L2.39455 7.79051L3.93612 7.88566L4.00985 7.89008C4.06172 7.88715 4.11206 7.87145 4.1564 7.84438C4.20075 7.81731 4.23773 7.7797 4.26406 7.7349C4.29039 7.69009 4.30525 7.63948 4.30734 7.58754C4.30942 7.53561 4.29865 7.48397 4.27599 7.4372L3.25049 5.37192L4.05482 6.99169L13.8933 2.0955C14.1556 1.96469 14.3552 1.73507 14.4484 1.45709C14.5416 1.1791 14.5206 0.875486 14.3902 0.612928Z" fill="#BAFA3D"/>
<path d="M0.112792 15.3805C0.241851 15.6426 0.469343 15.8431 0.745599 15.938C1.02185 16.033 1.32443 16.0147 1.58727 15.8872C1.64519 15.8583 1.70067 15.8248 1.75315 15.7869L11.4516 11.036L11.6595 11.4601C11.6831 11.5079 11.7184 11.549 11.7621 11.5795C11.8058 11.61 11.8565 11.629 11.9095 11.6347C11.9625 11.6405 12.016 11.6328 12.0652 11.6123C12.1144 11.5918 12.1577 11.5593 12.191 11.5177C12.2005 11.5049 12.2094 11.4916 12.2176 11.4778L13.0853 10.1856L13.9405 8.9132C13.9666 8.88649 13.9875 8.85524 14.0024 8.821C14.0212 8.77899 14.0306 8.73333 14.0297 8.68729C14.0288 8.64125 14.0177 8.59598 13.9973 8.55473C13.977 8.51318 13.9479 8.47658 13.912 8.44753C13.8761 8.41847 13.8342 8.39765 13.7894 8.38656C13.7534 8.37783 13.7163 8.37533 13.6795 8.37918L12.1497 8.27592L10.6089 8.17118L10.5352 8.16602C10.4919 8.16826 10.4495 8.1793 10.4106 8.19847C10.3731 8.21645 10.3395 8.24166 10.3118 8.27267C10.2841 8.30367 10.2627 8.33985 10.249 8.37912C10.2353 8.4184 10.2295 8.46 10.2319 8.50153C10.2344 8.54306 10.245 8.5837 10.2631 8.62111L11.2761 10.6864L10.4821 9.06367L0.619277 13.9016C0.356282 14.0307 0.155239 14.2589 0.0602807 14.5362C-0.0346777 14.8135 -0.0157921 15.1171 0.112792 15.3805Z" fill="#BAFA3D"/>
<path d="M20.9649 10.8146L22.4984 8.97056C23.2179 9.54958 24.1255 9.95673 24.8767 9.95673C25.6877 9.95673 26.0342 9.69046 26.0342 9.23684C26.0342 8.7515 25.5181 8.59513 24.6578 8.25067L23.3897 7.71665C22.2949 7.27851 21.3402 6.35504 21.3402 4.88279C21.3402 3.14501 22.9046 1.7207 25.1267 1.7207C26.2849 1.7207 27.5677 2.15884 28.5069 3.08305L27.1614 4.76994C26.4729 4.2846 25.8779 4.03234 25.1267 4.03234C24.4698 4.03234 24.0628 4.26763 24.0628 4.72126C24.0628 5.2066 24.6415 5.37919 25.5653 5.73914L26.8009 6.22448C28.069 6.72531 28.7915 7.60232 28.7915 9.01113C28.7915 10.7334 27.3516 12.2676 24.817 12.2676C23.5305 12.2691 22.0597 11.7993 20.9649 10.8146Z" fill="#1A1A1A"/>
<path d="M30.743 7.16509V1.90527H33.4346V7.47857C33.4346 9.29454 33.9042 9.95174 34.9681 9.95174C36.0319 9.95174 36.5325 9.29454 36.5325 7.47857V1.90527H39.1306V7.16509C39.1306 10.6407 37.816 12.2693 34.9681 12.2693C32.1201 12.2693 30.743 10.6407 30.743 7.16509Z" fill="#1A1A1A"/>
<path d="M41.7138 1.90527H45.3757C47.5034 1.90527 49.2249 2.43708 49.2249 4.44114C49.2249 5.31814 48.7243 6.3198 47.9413 6.63328V6.69598C48.9115 6.97774 49.6945 7.72862 49.6945 9.07547C49.6945 11.1732 47.8794 12.0812 45.6883 12.0812H41.7138V1.90527ZM45.3131 5.88167C46.1889 5.88167 46.5959 5.47452 46.5959 4.84903C46.5959 4.22355 46.1889 3.97203 45.3131 3.97203H44.4055V5.88241L45.3131 5.88167ZM45.5003 10.0122C46.5649 10.0122 47.0655 9.63679 47.0655 8.88517C47.0655 8.13356 46.5649 7.85254 45.5003 7.85254H44.4055V10.013L45.5003 10.0122Z" fill="#1A1A1A"/>
<path d="M50.7428 10.8146L52.2763 8.97056C52.9958 9.54958 53.9041 9.95673 54.6546 9.95673C55.4656 9.95673 55.8128 9.69046 55.8128 9.23684C55.8128 8.7515 55.2968 8.59513 54.4357 8.25067L53.1684 7.71665C52.0728 7.27851 51.1188 6.35504 51.1188 4.88279C51.1188 3.14501 52.6833 1.7207 54.9053 1.7207C56.0635 1.7207 57.3463 2.15884 58.2856 3.08305L56.9393 4.76994C56.2508 4.2846 55.6565 4.03234 54.9053 4.03234C54.2484 4.03234 53.8415 4.26763 53.8415 4.72126C53.8415 5.2066 54.4202 5.37919 55.3432 5.73914L56.5796 6.22448C57.8469 6.72531 58.5701 7.60232 58.5701 9.01113C58.5701 10.7334 57.1303 12.2676 54.5949 12.2676C53.3092 12.2691 51.8384 11.7993 50.7428 10.8146Z" fill="#1A1A1A"/>
<path d="M60.5857 1.90527H63.2767V5.69358H66.3126V1.90527H69.0058V12.0841H66.3126V8.0421H63.2767V12.0812H60.5857V1.90527Z" fill="#1A1A1A"/>
<path d="M73.4639 1.90527H76.7188L79.8152 12.0841H76.968L75.8105 7.13411C75.5606 6.16343 75.3099 4.92648 75.06 3.90933H74.9973C74.7762 4.94197 74.5277 6.16343 74.2771 7.13411L73.1196 12.0812H70.3652L73.4639 1.90527ZM72.5873 7.83852H77.5637V9.92076H72.5873V7.83852Z" fill="#1A1A1A"/>
<path d="M81.0228 1.90527H84.8719C87.0623 1.90527 88.94 2.65689 88.94 5.19275C88.94 7.65043 87.0623 8.66832 84.8719 8.66832H83.7137V12.0812H81.0228V1.90527ZM84.6832 6.53666C85.7478 6.53666 86.311 6.06755 86.311 5.19054C86.311 4.31353 85.7478 4.03177 84.6832 4.03177H83.713V6.53961L84.6832 6.53666ZM84.3883 7.9617L86.2034 6.17671L89.5055 12.0775H86.5005L84.3883 7.9617Z" fill="#1A1A1A"/>
<path d="M91.2705 1.90527H97.8422V4.15938H93.9621V5.75628H97.2797V8.01186H93.9621V9.82635H97.9993V12.0812H91.2705V1.90527Z" fill="#1A1A1A"/>
</g>
<defs>
<clipPath id="clip0_84_1069">
<rect width="98" height="16" fill="white"/>
</clipPath>
</defs>
</svg>
