<svg width="334" height="291" viewBox="0 0 334 291" fill="none" xmlns="http://www.w3.org/2000/svg">
<g clip-path="url(#clip0_824_56)">
<path d="M54.0742 117.329C51.3928 117.332 48.8221 118.396 46.926 120.289C45.03 122.181 43.9635 124.747 43.9604 127.423V237.165C43.9635 239.841 45.03 242.407 46.926 244.3C48.8221 246.192 51.3928 247.256 54.0742 247.259H281.979C284.66 247.256 287.231 246.192 289.127 244.3C291.023 242.407 292.09 239.841 292.093 237.165V127.423C292.09 124.747 291.023 122.181 289.127 120.289C287.231 118.396 284.66 117.332 281.979 117.329H54.0742Z" fill="#000D0A"/>
<path d="M281.979 247.653H54.0744C51.2884 247.65 48.6174 246.544 46.6474 244.578C44.6775 242.612 43.5693 239.946 43.5662 237.165V127.423C43.5693 124.642 44.6775 121.977 46.6474 120.01C48.6174 118.044 51.2884 116.938 54.0744 116.935H281.979C284.765 116.938 287.436 118.044 289.406 120.01C291.376 121.977 292.484 124.642 292.487 127.423V237.165C292.484 239.946 291.376 242.612 289.406 244.578C287.436 246.544 284.765 247.65 281.979 247.653ZM54.0744 117.722C51.4976 117.725 49.0271 118.748 47.205 120.567C45.3829 122.385 44.358 124.851 44.3551 127.423V237.165C44.358 239.737 45.3829 242.203 47.205 244.021C49.0271 245.84 51.4976 246.863 54.0744 246.866H281.979C284.556 246.863 287.026 245.84 288.848 244.021C290.67 242.203 291.695 239.737 291.698 237.165V127.423C291.695 124.851 290.67 122.385 288.848 120.567C287.026 118.748 284.556 117.725 281.979 117.722H54.0744Z" fill="#3F3D56"/>
<path d="M119.834 241.506C119.852 241.065 118.499 240.654 116.813 240.587C115.127 240.521 113.746 240.824 113.728 241.264C113.711 241.705 115.063 242.116 116.75 242.183C118.436 242.25 119.817 241.947 119.834 241.506Z" fill="#E6E6E6"/>
<path d="M139.283 240.478C139.301 240.037 137.948 239.626 136.262 239.559C134.576 239.492 133.195 239.796 133.177 240.236C133.16 240.677 134.513 241.088 136.199 241.155C137.885 241.222 139.266 240.919 139.283 240.478Z" fill="#3F3D56"/>
<path d="M112.362 235.516C112.379 235.076 111.026 234.664 109.34 234.598C107.654 234.531 106.273 234.834 106.256 235.275C106.238 235.715 107.591 236.127 109.277 236.193C110.963 236.26 112.344 235.957 112.362 235.516Z" fill="#FF6584"/>
<path d="M102.968 233.328C103.013 232.935 102.444 232.547 101.698 232.462C100.953 232.377 100.312 232.627 100.267 233.021C100.222 233.414 100.79 233.802 101.536 233.887C102.282 233.972 102.923 233.721 102.968 233.328Z" fill="#E6E6E6"/>
<path d="M98.4791 228.74C98.524 228.346 97.9558 227.959 97.21 227.874C96.4641 227.789 95.823 228.039 95.7781 228.433C95.7332 228.826 96.3014 229.214 97.0473 229.299C97.7931 229.383 98.4342 229.133 98.4791 228.74Z" fill="#3F3D56"/>
<path d="M123.845 236.552C123.89 236.159 123.322 235.771 122.576 235.686C121.83 235.601 121.189 235.852 121.144 236.245C121.099 236.638 121.667 237.026 122.413 237.111C123.159 237.196 123.8 236.946 123.845 236.552Z" fill="#E6E6E6"/>
<path d="M114.944 238.505C114.989 238.111 114.42 237.723 113.675 237.639C112.929 237.554 112.288 237.804 112.243 238.197C112.198 238.591 112.766 238.978 113.512 239.063C114.258 239.148 114.899 238.898 114.944 238.505Z" fill="#FF6584"/>
<path d="M129.341 241.649C129.386 241.256 128.818 240.868 128.072 240.783C127.326 240.699 126.685 240.949 126.64 241.342C126.595 241.736 127.164 242.123 127.909 242.208C128.655 242.293 129.296 242.043 129.341 241.649Z" fill="#3F3D56"/>
<path d="M2.07776e-06 225.369C-0.00018178 225.43 0.0118381 225.491 0.035366 225.548C0.0588939 225.605 0.0934691 225.657 0.1371 225.701C0.18073 225.744 0.232554 225.779 0.289595 225.802C0.346636 225.826 0.407765 225.838 0.469466 225.837H333.531C333.655 225.837 333.775 225.788 333.863 225.7C333.951 225.612 334 225.493 334 225.369C334 225.245 333.951 225.125 333.863 225.037C333.775 224.95 333.655 224.9 333.531 224.9H0.469442C0.407744 224.9 0.34662 224.912 0.289583 224.936C0.232546 224.959 0.180721 224.994 0.137094 225.037C0.093466 225.081 0.0588931 225.132 0.035366 225.189C0.0118388 225.246 -0.000179671 225.307 2.07776e-06 225.369Z" fill="#CCCCCC"/>
<path d="M113.844 217.091C113.617 217.101 113.393 217.042 113.201 216.921C113.009 216.799 112.859 216.622 112.772 216.413C112.684 216.204 112.663 215.973 112.711 215.752C112.76 215.53 112.875 215.329 113.042 215.175L113.118 214.874C113.108 214.85 113.098 214.826 113.087 214.802C112.859 214.263 112.476 213.804 111.987 213.481C111.497 213.159 110.924 212.988 110.338 212.991C109.751 212.993 109.179 213.168 108.692 213.494C108.205 213.819 107.826 214.282 107.601 214.822C106.704 216.979 105.562 219.139 105.28 221.42C105.157 222.428 105.209 223.45 105.435 224.44C103.327 219.852 102.233 214.865 102.226 209.818C102.226 208.551 102.296 207.285 102.437 206.027C102.554 204.995 102.716 203.97 102.923 202.953C104.052 197.434 106.477 192.261 109.999 187.858C111.704 186.93 113.082 185.503 113.949 183.769C114.263 183.145 114.484 182.48 114.607 181.793C114.415 181.818 113.882 178.895 114.027 178.716C113.759 178.31 113.28 178.108 112.987 177.712C111.532 175.743 109.527 176.087 108.48 178.763C106.244 179.89 106.222 181.758 107.594 183.555C108.467 184.698 108.587 186.244 109.353 187.468C109.274 187.569 109.192 187.666 109.113 187.767C107.673 189.616 106.417 191.601 105.365 193.694C105.621 191.349 105.315 188.977 104.474 186.773C103.62 184.719 102.021 182.989 100.613 181.213C98.9216 179.08 95.4531 180.011 95.1551 182.715C95.1522 182.741 95.1493 182.767 95.1466 182.793C95.3558 182.911 95.5605 183.036 95.7609 183.168C96.0125 183.336 96.2075 183.576 96.3203 183.856C96.4331 184.137 96.4585 184.444 96.393 184.739C96.3275 185.034 96.1743 185.303 95.9534 185.509C95.7326 185.716 95.4543 185.851 95.1552 185.897L95.1246 185.902C95.1991 186.654 95.3308 187.4 95.5185 188.132C93.712 195.105 97.6122 197.645 103.181 197.759C103.304 197.822 103.424 197.885 103.547 197.944C102.489 200.935 101.826 204.051 101.574 207.213C101.431 209.078 101.439 210.952 101.599 212.816L101.589 212.75C101.186 210.677 100.078 208.807 98.4531 207.455C96.0395 205.476 92.6296 204.747 90.0258 203.157C89.7491 202.979 89.4274 202.885 89.0985 202.884C88.7697 202.883 88.4475 202.976 88.1699 203.152C87.8923 203.328 87.6709 203.58 87.5319 203.877C87.3928 204.175 87.3419 204.505 87.3851 204.831C87.3885 204.854 87.3921 204.877 87.3957 204.9C87.7839 205.058 88.1618 205.24 88.5273 205.445C88.7365 205.562 88.9412 205.687 89.1415 205.82C89.3932 205.987 89.5882 206.227 89.701 206.507C89.8138 206.788 89.8391 207.096 89.7736 207.391C89.7082 207.685 89.555 207.954 89.3341 208.16C89.1132 208.367 88.835 208.502 88.5359 208.548L88.5052 208.553C88.4831 208.556 88.4642 208.559 88.4422 208.562C89.1054 210.143 90.0362 211.597 91.1939 212.863C92.3235 218.95 97.1751 219.527 102.365 217.755H102.368C102.937 220.224 103.762 222.628 104.83 224.928H113.624C113.655 224.83 113.684 224.73 113.712 224.632C112.898 224.683 112.081 224.635 111.279 224.487C111.931 223.688 112.584 222.883 113.236 222.084C113.251 222.069 113.264 222.053 113.277 222.037C113.608 221.628 113.942 221.222 114.273 220.813L114.273 220.812C114.291 219.559 114.147 218.308 113.845 217.091L113.844 217.091Z" fill="#F2F2F2"/>
<path d="M69.943 212.221C69.5752 212.238 69.2111 212.141 68.9 211.945C68.5889 211.748 68.3459 211.461 68.2038 211.122C68.0618 210.783 68.0276 210.408 68.1059 210.049C68.1842 209.69 68.3712 209.364 68.6416 209.114C68.6869 208.935 68.7193 208.806 68.7646 208.626C68.7484 208.587 68.7321 208.548 68.7157 208.509C68.3452 207.635 67.7243 206.891 66.9311 206.368C66.1378 205.846 65.2076 205.569 64.2572 205.572C63.3068 205.576 62.3786 205.86 61.5892 206.388C60.7999 206.916 60.1846 207.666 59.8205 208.542C58.3657 212.039 56.5134 215.542 56.0573 219.24C55.8565 220.875 55.9412 222.532 56.3078 224.137C52.8907 216.698 51.1163 208.612 51.1049 200.428C51.1042 198.374 51.2185 196.322 51.4473 194.281C51.6365 192.608 51.8988 190.946 52.2344 189.297C54.0659 180.348 57.9982 171.96 63.7082 164.822C66.4719 163.317 68.7069 161.003 70.1121 158.191C70.6212 157.18 70.9809 156.101 71.1803 154.988C70.8685 155.028 70.0047 150.29 70.2399 149.999C69.8054 149.341 69.0278 149.014 68.5533 148.372C66.1934 145.178 62.9421 145.736 61.2448 150.075C57.6189 151.902 57.5838 154.931 59.8086 157.844C61.2241 159.698 61.4186 162.206 62.6605 164.19C62.5327 164.353 62.3998 164.511 62.2721 164.674C59.9364 167.672 57.9007 170.891 56.1941 174.285C56.6092 170.483 56.1138 166.636 54.7489 163.063C53.3656 159.732 50.7728 156.927 48.4895 154.047C45.7469 150.589 40.1229 152.098 39.6397 156.482C39.635 156.525 39.6305 156.567 39.626 156.61C39.9652 156.801 40.2971 157.003 40.622 157.218C41.03 157.49 41.3462 157.879 41.5291 158.333C41.712 158.788 41.753 159.287 41.6469 159.765C41.5407 160.243 41.2923 160.678 40.9342 161.013C40.5761 161.348 40.1249 161.567 39.6399 161.642L39.5902 161.65C39.7111 162.87 39.9246 164.079 40.2291 165.266C37.2999 176.572 43.6238 180.69 52.6535 180.875C52.8528 180.977 53.0471 181.079 53.2464 181.176C51.5318 186.026 50.4563 191.077 50.047 196.204C49.8153 199.228 49.8289 202.267 50.0879 205.289L50.0725 205.182C49.4183 201.821 47.6221 198.789 44.9872 196.597C41.0738 193.388 35.5449 192.207 31.3231 189.628C29.2908 188.386 26.6865 189.99 27.0412 192.342C27.0469 192.38 27.0527 192.417 27.0585 192.455C27.6879 192.711 28.3006 193.005 28.8933 193.337C29.2324 193.528 29.5644 193.731 29.8892 193.945C30.2973 194.217 30.6134 194.606 30.7963 195.061C30.9792 195.515 31.0203 196.014 30.9141 196.492C30.808 196.971 30.5596 197.406 30.2014 197.741C29.8433 198.076 29.3922 198.295 28.9072 198.369L28.8574 198.377C28.8217 198.382 28.791 198.387 28.7553 198.392C29.8306 200.955 31.3399 203.314 33.217 205.365C35.0485 215.235 42.9151 216.172 51.3298 213.297H51.3349C52.2582 217.302 53.5959 221.199 55.3265 224.928H69.5856C69.6368 224.77 69.6828 224.606 69.7288 224.448C68.4089 224.531 67.0839 224.452 65.7832 224.214C66.8411 222.918 67.8991 221.612 68.957 220.316C68.9806 220.292 69.0028 220.267 69.0235 220.24C69.5601 219.577 70.1019 218.919 70.6385 218.256L70.6388 218.255C70.6674 216.222 70.4337 214.194 69.9434 212.221L69.943 212.221Z" fill="#F2F2F2"/>
<path d="M265.091 102.103C264.133 94.7798 247.209 95.247 245.611 102.137C244.763 101.608 242.607 101.974 241.803 102.582C240.998 103.191 240.483 104.085 239.978 104.953C239.289 106.158 238.575 107.407 238.423 108.789C238.264 110.169 238.807 111.732 240.06 112.346C241.054 112.836 243.242 112.505 244.335 112.286C245.097 112.135 245.738 112.002 246.281 111.872C246.463 111.015 246.337 110.121 245.925 109.346C246.364 109.433 246.779 109.616 247.138 109.882C247.498 110.148 247.795 110.49 248.007 110.883C248.092 111.048 251.193 134.344 251.193 134.344C252.041 134.446 252.896 134.467 253.748 134.408C254.276 131.541 254.372 128.611 254.033 125.715C254.931 127.37 255.641 129.12 256.151 130.932C256.443 131.945 256.683 132.973 256.87 134.011C264.249 132.634 274.224 127.89 276.044 119.835C276.034 119.809 276.024 119.783 276.014 119.757C275.915 119.511 275.904 119.238 275.984 118.985C276.064 118.732 276.23 118.514 276.453 118.37C276.676 118.225 276.942 118.163 277.207 118.193C277.471 118.222 277.716 118.343 277.901 118.534C278.124 118.762 278.322 118.958 278.49 119.109C277.843 113.965 273.933 109.336 265.091 102.103Z" fill="#2F2E41"/>
<path d="M157.344 281.457L153.207 279.299L159.767 261.989L165.873 265.176L157.344 281.457Z" fill="#A0616A"/>
<path d="M140.65 281.249C140.394 281.739 140.343 282.31 140.509 282.837C140.674 283.364 141.042 283.804 141.532 284.061L149.759 288.353L152.706 286.166L151.728 289.378L154.831 291L159.426 280.108L158.379 279.482L154.111 276.916L152.733 276.092L151.185 279.047L142.243 280.147C141.908 280.188 141.588 280.31 141.311 280.502C141.033 280.694 140.807 280.95 140.65 281.249Z" fill="#2F2E41"/>
<path d="M153.105 217.734L150.096 214.172L162.739 200.634L167.18 205.892L153.105 217.734Z" fill="#A0616A"/>
<path d="M137.736 211.228C137.313 211.585 137.049 212.094 137.002 212.644C136.955 213.195 137.128 213.741 137.485 214.164L143.468 221.247L147.026 220.338L144.902 222.941L147.157 225.615L155.545 217.273L154.813 216.298L151.838 212.309L150.876 211.025L148.321 213.174L139.628 210.811C139.303 210.722 138.96 210.714 138.631 210.787C138.301 210.859 137.994 211.011 137.736 211.228Z" fill="#2F2E41"/>
<path d="M285.818 204.385C285.818 204.385 298.594 231.678 245.687 224.324C245.687 224.324 217.499 193.145 218.314 189.394C218.314 189.394 206.317 177.226 206.904 177.005C207.491 176.783 207.853 176.302 206.883 176.346C205.913 176.39 205.913 174.948 205.913 174.948C205.913 174.948 184.231 198.416 165.975 210.061L159.663 202.974C159.663 202.974 162.125 195.289 163.308 195.289C164.492 195.289 164.9 195.573 165.09 194.053C165.281 192.533 164.338 191.227 165.598 191.093C166.859 190.958 192.977 160.491 192.977 160.491C192.977 160.491 195.795 150.456 204.404 152.398C213.014 154.341 257.751 190.643 257.751 190.643L285.818 204.385Z" fill="#2F2E41"/>
<path d="M264.274 225.208L194.378 224.629L164.003 272.664L155.418 268.129L157.321 267.327C157.321 267.327 156.745 260.651 157.451 258.961C158.157 257.271 160.256 257.779 160.256 257.779L177.966 217.017C179.187 213.398 181.587 210.292 184.782 208.193C187.977 206.093 191.784 205.122 195.597 205.432C210.251 203.299 234.038 205.003 258.751 207.096L264.274 225.208Z" fill="#2F2E41"/>
<path d="M223.806 143.458C225.137 143.661 226.335 144.375 227.146 145.447C227.958 146.519 228.318 147.864 228.15 149.197C228.112 149.467 228.051 149.734 227.969 149.995L242.331 160.868L239.367 170.082L221.306 153.065C220.251 152.64 219.366 151.878 218.79 150.899C218.214 149.92 217.978 148.777 218.121 147.65C218.208 147.01 218.421 146.393 218.748 145.835C219.074 145.276 219.507 144.788 220.022 144.396C220.538 144.005 221.126 143.719 221.752 143.555C222.378 143.39 223.031 143.35 223.672 143.437C223.717 143.444 223.762 143.45 223.806 143.458Z" fill="#A0616A"/>
<path d="M287.166 144.136L282.002 158.405L261.808 186.887C261.808 186.887 261.642 186.817 261.343 186.691C259.607 185.942 253.303 183.194 247.374 180.072C241.808 177.139 236.565 173.875 235.752 171.63C235.665 171.394 235.587 171.166 235.516 170.945V170.941C235.137 169.799 234.9 168.614 234.809 167.414C234.742 166.488 234.802 165.992 234.675 165.933C234.577 165.89 234.372 166.102 233.918 166.583C233.886 166.614 233.859 166.646 233.827 166.673C232.186 168.315 230.17 168.103 230.663 167.323C231.168 166.524 230.904 166.539 230.162 165.705C229.61 165.083 227.815 162.649 226.932 161.449C226.628 161.035 226.434 160.767 226.434 160.767L226.738 160.291L227.578 158.976L231.575 152.723L231.796 152.381C231.796 152.381 240.009 154.275 241.101 156.074C242.198 157.873 239.449 157.814 242.198 157.873C244.948 157.933 247.752 154.2 245.745 157.913C243.737 161.622 244.265 162.917 246.75 162.33C247.76 162.09 249.358 162.85 250.897 163.835V163.838C251.859 164.462 252.787 165.137 253.678 165.858C254.628 166.622 255.271 167.201 255.271 167.201L270.869 135.616L272.597 132.12C273.124 131.056 273.858 130.107 274.756 129.33C275.654 128.552 276.698 127.961 277.828 127.592L278.369 128.533C281.734 133.479 284.676 138.698 287.166 144.136Z" fill="#BAFA3D"/>
<path d="M288.03 189.423C292.811 190.533 287.724 225.27 282.025 225.378C240.604 226.166 253.216 202.971 250.995 200.751C248.774 198.526 246.77 200.121 248.774 196.66C250.234 194.14 252.399 194.514 252.431 193.1C252.447 192.573 252.167 191.801 251.441 190.533C248.774 185.872 248.774 184.482 248.774 184.482C248.109 183.082 247.638 181.598 247.374 180.072C246.941 177.802 246.888 175.477 247.216 173.19C247.717 169.834 248.975 166.637 250.896 163.838V163.835C251.098 163.535 251.307 163.232 251.528 162.933C252.029 162.252 254.806 162.382 254.806 162.382L260.723 137.577L257.299 127.686L273.516 120.103L277.828 127.592L278.369 128.533C281.733 133.479 284.676 138.698 287.166 144.136C289.56 149.456 291.529 155.361 291.6 160.5C291.789 173.898 289.473 177.883 289.473 177.883C289.473 177.883 295.095 182.076 292.282 184.639C289.473 187.206 283.248 188.313 288.03 189.423Z" fill="#BAFA3D"/>
<path d="M214.56 140.194L211.914 142.2C211.392 142.599 211.049 143.189 210.961 143.839C210.873 144.49 211.047 145.149 211.444 145.672L217.817 154.033L221.58 158.965C221.979 159.486 222.569 159.828 223.22 159.916C223.871 160.003 224.53 159.83 225.054 159.434L227.703 157.425C228.223 157.025 228.564 156.436 228.652 155.786C228.739 155.136 228.566 154.478 228.17 153.955L227.779 153.44L220.059 143.317L218.034 140.663C217.837 140.404 217.59 140.187 217.309 140.024C217.028 139.86 216.717 139.754 216.394 139.71C216.072 139.667 215.744 139.687 215.429 139.77C215.115 139.853 214.819 139.997 214.56 140.194Z" fill="#3F3D56"/>
<path d="M215.944 140.043L213.094 142.027C212.843 142.191 212.629 142.407 212.467 142.659C212.305 142.912 212.199 143.196 212.155 143.492C212.111 143.789 212.13 144.091 212.212 144.38C212.294 144.668 212.436 144.936 212.629 145.166L216.36 149.653L218.348 152.043L219.675 153.638L222.642 157.205C223.061 157.684 223.642 157.992 224.275 158.07C224.907 158.149 225.546 157.992 226.07 157.631L228.206 156.144L228.917 155.649C229.271 155.413 229.548 155.078 229.712 154.686C229.876 154.294 229.92 153.862 229.839 153.445C229.768 153.098 229.611 152.775 229.383 152.504L220.616 141.96L219.373 140.468C218.954 139.989 218.373 139.68 217.74 139.602C217.108 139.523 216.468 139.68 215.944 140.043Z" fill="#BAFA3D"/>
<path d="M217.766 151.124C219.096 151.328 220.295 152.042 221.106 153.113C221.917 154.185 222.277 155.531 222.11 156.864C222.071 157.134 222.011 157.401 221.928 157.661L236.29 168.535L233.327 177.749L215.266 160.732C214.21 160.307 213.326 159.545 212.749 158.566C212.173 157.586 211.938 156.444 212.081 155.317C212.168 154.677 212.381 154.06 212.707 153.502C213.033 152.943 213.467 152.454 213.982 152.063C214.498 151.672 215.085 151.386 215.711 151.221C216.338 151.057 216.99 151.017 217.632 151.104C217.677 151.11 217.721 151.117 217.766 151.124Z" fill="#A0616A"/>
<path d="M276.341 134.999C277.596 135.254 278.782 135.776 279.817 136.529C280.852 137.283 281.713 138.25 282.34 139.364C282.968 140.479 283.347 141.716 283.453 142.99C283.559 144.265 283.388 145.547 282.953 146.749L275.963 166.071L255.766 194.556C255.766 194.556 231.545 184.344 229.711 179.297C227.877 174.25 229.533 172.508 227.877 174.25C226.221 175.991 224.121 175.785 224.624 174.988C225.127 174.191 224.862 174.208 224.122 173.373C223.382 172.538 220.395 168.435 220.395 168.435L225.755 160.048C225.755 160.048 233.968 161.941 235.063 163.741C236.157 165.542 233.407 165.483 236.157 165.542C238.907 165.601 241.713 161.867 239.704 165.579C237.695 169.29 238.225 170.584 240.71 169.996C243.196 169.408 249.229 174.868 249.229 174.868L266.558 139.787C267.43 138.023 268.863 136.596 270.632 135.73C272.402 134.863 274.409 134.606 276.341 134.999Z" fill="#BAFA3D"/>
<path d="M266.006 123.368C271.027 118.357 271.027 110.232 266.006 105.221C260.985 100.209 252.844 100.209 247.823 105.221C242.802 110.232 242.802 118.357 247.823 123.368C252.844 128.38 260.985 128.38 266.006 123.368Z" fill="#A0616A"/>
<path d="M271.949 100.315C270.992 92.9914 254.067 93.4586 252.469 100.349C251.622 99.8194 249.465 100.186 248.661 100.794C247.857 101.402 247.341 102.296 246.837 103.164C246.148 104.37 241.327 108.449 240.604 107.26C238.979 104.583 235.791 110.431 238.238 114.347C238.824 115.285 250.163 113.778 251.256 113.559C252.018 113.408 250.712 113.689 251.256 113.559C251.431 112.71 253.202 108.321 252.784 107.558C253.223 107.645 253.637 107.828 253.997 108.094C254.357 108.359 254.653 108.701 254.865 109.095C254.951 109.26 258.051 132.555 258.051 132.555C258.899 132.657 259.754 132.679 260.606 132.619C261.135 129.752 261.231 126.822 260.891 123.927C261.789 125.582 262.5 127.332 263.009 129.143C263.301 130.157 263.541 131.185 263.728 132.223C271.107 130.845 281.083 126.102 282.903 118.047C272.952 114.74 280.792 107.548 271.949 100.315Z" fill="#2F2E41"/>
<path d="M159.409 137.115C159.574 135.984 158.387 134.875 156.757 134.638C155.128 134.402 153.674 135.127 153.509 136.258C153.344 137.389 154.531 138.498 156.16 138.735C157.789 138.971 159.244 138.246 159.409 137.115Z" fill="#E6E6E6"/>
<path d="M178.806 135.226C178.971 134.095 177.784 132.986 176.155 132.749C174.526 132.513 173.071 133.238 172.906 134.369C172.742 135.5 173.929 136.609 175.558 136.846C177.187 137.082 178.641 136.357 178.806 135.226Z" fill="#3F3D56"/>
<path d="M154.097 121.441C154.262 120.31 153.075 119.201 151.446 118.965C149.817 118.728 148.362 119.453 148.197 120.585C148.032 121.716 149.22 122.825 150.849 123.061C152.478 123.298 153.932 122.573 154.097 121.441Z" fill="#FF6584"/>
<path d="M145.669 115.021C145.676 113.983 145.096 113.136 144.372 113.131C143.648 113.125 143.055 113.963 143.047 115.001C143.04 116.04 143.62 116.886 144.344 116.892C145.068 116.897 145.661 116.06 145.669 115.021Z" fill="#E6E6E6"/>
<path d="M142.81 103.063C142.818 102.024 142.238 101.178 141.514 101.173C140.79 101.167 140.197 102.005 140.189 103.043C140.181 104.082 140.762 104.928 141.485 104.933C142.209 104.939 142.802 104.101 142.81 103.063Z" fill="#3F3D56"/>
<path d="M165.038 124.109C165.045 123.07 164.465 122.224 163.741 122.218C163.017 122.213 162.424 123.05 162.416 124.089C162.409 125.127 162.989 125.974 163.713 125.979C164.437 125.984 165.03 125.147 165.038 124.109Z" fill="#E6E6E6"/>
<path d="M155.664 128.78C155.672 127.741 155.091 126.895 154.368 126.89C153.644 126.884 153.051 127.722 153.043 128.76C153.035 129.798 153.615 130.645 154.339 130.65C155.063 130.656 155.656 129.818 155.664 128.78Z" fill="#FF6584"/>
<path d="M168.712 137.413C168.72 136.375 168.14 135.529 167.416 135.523C166.692 135.518 166.099 136.355 166.091 137.394C166.083 138.432 166.664 139.278 167.388 139.284C168.111 139.289 168.705 138.452 168.712 137.413Z" fill="#3F3D56"/>
<path d="M213.492 148.456C213.67 148.329 213.557 147.868 213.24 147.426C212.923 146.984 212.523 146.728 212.345 146.854C212.168 146.981 212.281 147.442 212.598 147.884C212.915 148.326 213.315 148.582 213.492 148.456Z" fill="#3F3D56"/>
<path d="M212.309 146.881C212.486 146.754 212.373 146.293 212.056 145.851C211.74 145.409 211.339 145.153 211.162 145.279C210.985 145.406 211.098 145.867 211.414 146.309C211.731 146.751 212.132 147.007 212.309 146.881Z" fill="#3F3D56"/>
</g>
<g clip-path="url(#clip1_824_56)">
<path d="M86.2225 84.0443C85.4066 82.9034 84.302 82.0686 82.9134 81.7562C81.7025 81.4838 80.4574 81.5302 79.2265 81.5397L63.6628 81.6595C62.3298 81.6698 61.0518 82.8229 61.1137 84.2048C61.1752 85.5751 62.234 86.7611 63.6628 86.7501C68.2219 86.715 72.781 86.6799 77.34 86.6448C78.4149 86.6365 79.4903 86.6172 80.5652 86.6207C80.8066 86.6215 81.047 86.6342 81.2881 86.6369C81.3465 86.6376 81.3887 86.6371 81.4185 86.6358C81.426 86.6381 81.4323 86.6402 81.442 86.6428C81.5678 86.6773 81.6968 86.7011 81.8234 86.7338C81.779 86.7352 81.9055 86.8139 81.9689 86.8406C81.9776 86.8578 81.9962 86.8882 82.0273 86.9353C82.0706 87.0164 82.1989 87.2628 82.2042 87.255C82.3969 87.7416 82.5559 88.2409 82.68 88.7493C82.9762 89.8703 83.0413 90.1047 83.084 91.1565C83.1379 92.4851 84.2178 93.7651 85.633 93.7018C86.9679 93.6421 88.2398 92.5815 88.182 91.1565C88.0846 88.7553 87.6625 86.058 86.2225 84.0443Z" fill="#000D0A"/>
<path d="M64.5776 89.788C64.2853 88.0191 63.9985 86.249 63.7005 84.4811C63.3981 82.6876 62.7806 81.0452 61.3828 79.8681C61.0094 79.5536 60.6221 79.26 60.2333 78.9673C60.0965 78.8644 59.96 78.7613 59.8249 78.6562C59.8168 78.6499 59.8116 78.646 59.8046 78.6405C59.7898 78.6277 59.772 78.6126 59.748 78.5923C59.1654 78.1 58.6025 77.5858 58.0663 77.0392C57.5902 76.5537 57.1348 76.0476 56.7003 75.5208C56.5917 75.3892 56.4845 75.2564 56.3787 75.1225C56.3605 75.0994 56.2625 74.9729 56.1979 74.8904C56.1378 74.8078 56.0281 74.6586 56.0096 74.6326C55.886 74.458 55.7646 74.2819 55.6454 74.1041C54.8336 72.8895 54.1305 71.6057 53.5446 70.2678C53.4864 70.1351 53.4297 70.0016 53.3744 69.8673C53.3595 69.8264 53.3403 69.7737 53.3148 69.7037C53.1967 69.3794 53.0788 69.0555 52.9709 68.7274C52.7415 68.0305 52.5442 67.3234 52.3792 66.6059C52.2976 66.2516 52.2241 65.8955 52.1588 65.5377C52.1251 65.3536 52.0936 65.1692 52.0643 64.9844C52.0595 64.9537 52.0308 64.7544 52.014 64.6417C52.0015 64.5285 51.9783 64.328 51.9752 64.2971C51.9566 64.1108 51.94 63.9243 51.9255 63.7377C51.8929 63.3177 51.8709 62.897 51.8594 62.4756C51.8398 61.7267 51.8532 60.9779 51.8997 60.2291C51.9261 59.8084 51.9638 59.3888 52.0102 58.9699C52.013 58.9442 52.0151 58.9237 52.0172 58.9053C52.02 58.8866 52.0232 58.8653 52.0271 58.8389C52.0614 58.6074 52.0975 58.3763 52.1379 58.1459C52.2908 57.271 52.4896 56.4047 52.7336 55.5507C52.8491 55.1468 52.9746 54.7461 53.11 54.3487C53.1704 54.1723 53.2327 53.9966 53.2969 53.8216C53.2927 53.8329 53.4852 53.3418 53.4878 53.3253C54.2517 51.5231 55.5011 49.8801 55.5029 47.8328C55.504 46.4467 54.3296 45.1188 52.9538 45.1829C52.2679 45.2087 51.6188 45.4994 51.1433 45.9937C50.6677 46.488 50.403 47.1474 50.4048 47.8328C50.4048 47.8639 50.4046 47.8905 50.4046 47.9162C50.3917 47.9594 50.381 47.9954 50.3714 48.0272C50.2224 48.3505 50.0399 48.6577 49.8764 48.9729C49.4286 49.8357 49.0464 50.7267 48.6834 51.6309C48.0891 53.1033 47.6341 54.628 47.3246 56.1852C46.6517 59.5969 46.5995 63.1017 47.1704 66.5319C48.1587 72.5472 51.4179 78.3054 55.9491 82.1759C56.3423 82.5118 56.7451 82.8364 57.1517 83.1544C57.3199 83.286 57.4896 83.4152 57.6601 83.5435C57.7407 83.6042 58.0746 83.8671 57.9277 83.7397C58.2436 84.0089 58.3765 84.1443 58.4576 84.3425C58.4694 84.3883 58.4854 84.4503 58.5071 84.5352C58.5643 84.7587 58.6186 84.9818 58.6637 85.2085C59.0581 87.1893 59.3322 89.2033 59.6617 91.1969C59.8881 92.5667 61.5769 93.4583 62.7973 93.0477C64.2177 92.5698 64.8202 91.2558 64.5776 89.788Z" fill="#000D0A"/>
<path d="M86.4803 94.9256C85.4098 94.9284 84.3819 94.5071 83.6221 93.754C82.8623 93.001 82.4326 91.9778 82.4274 90.9088V88.0053C79.3831 88.3456 68.9585 88.2668 65.9703 87.7874V90.7927C65.9622 91.8608 65.5317 92.8824 64.7725 93.6349C64.0133 94.3873 62.987 94.8095 61.9173 94.8095C60.8476 94.8095 59.8213 94.3873 59.0621 93.6349C58.3029 92.8824 57.8723 91.8608 57.8643 90.7927V84.892C53.8171 82.6469 50.4431 79.364 48.0906 75.3822C45.7382 71.4003 44.4924 66.8637 44.4819 62.2406C44.4819 54.3135 48.0797 46.9187 54.3528 41.9522C58.4315 38.7122 63.3871 36.7636 68.5832 36.3568C69.2884 36.3016 69.998 36.2736 70.6923 36.2736C73.1381 36.2736 84.1732 36.6509 86.942 37.4463L93.2553 31.1909C93.3481 31.0977 93.4666 31.0342 93.5957 31.0085C93.7248 30.9828 93.8586 30.9961 93.9801 31.0466C94.1026 31.0953 94.2074 31.1797 94.2809 31.289C94.3544 31.3982 94.3931 31.527 94.3919 31.6586V32.6532L95.6212 31.4374C95.7138 31.3441 95.8322 31.2805 95.9613 31.2548C96.0903 31.2291 96.2241 31.2424 96.3455 31.293C96.468 31.3416 96.573 31.4261 96.6465 31.5353C96.7201 31.6446 96.7589 31.7735 96.7577 31.9051V43.0194C99.9256 45.8711 102.34 49.4592 103.787 53.4656C105.234 57.472 105.669 61.7729 105.054 65.9873C104.438 70.2017 102.791 74.1994 100.258 77.6261C97.7252 81.0529 94.3849 83.8028 90.5333 85.6322V90.9088C90.528 91.9778 90.0984 93.001 89.3386 93.754C88.5788 94.5071 87.5508 94.9284 86.4803 94.9256ZM82.746 87.6445V90.9088C82.754 91.8925 83.151 92.8332 83.8505 93.5259C84.5499 94.2187 85.4952 94.6074 86.4803 94.6074C87.4655 94.6074 88.4107 94.2187 89.1102 93.5259C89.8096 92.8332 90.2066 91.8925 90.2146 90.9088V85.4312L90.3056 85.3881C94.6274 83.3403 98.2963 80.1365 100.905 76.1324C104.229 71.0229 105.611 64.894 104.802 58.8549C103.992 52.8158 101.045 47.2656 96.492 43.2087L96.4391 43.1613V31.9051C96.4402 31.8367 96.4203 31.7696 96.3821 31.7129C96.3439 31.6561 96.2892 31.6124 96.2253 31.5877C96.1618 31.5606 96.0916 31.5532 96.0239 31.5667C95.9562 31.5801 95.8942 31.6137 95.8459 31.6629L94.0732 33.4161V31.6586C94.0744 31.5902 94.0545 31.5231 94.0163 31.4663C93.9781 31.4096 93.9233 31.3659 93.8595 31.3411C93.7959 31.3141 93.7255 31.3068 93.6577 31.3203C93.5899 31.3339 93.5278 31.3675 93.4795 31.4169L87.031 37.8062L86.9394 37.7776C84.3655 36.9732 73.1567 36.5918 70.6923 36.5918C70.0063 36.5918 69.3051 36.6194 68.6082 36.674C63.4753 37.0758 58.5799 39.0007 54.5508 42.2015C48.3544 47.1073 44.8005 54.4112 44.8005 62.2406C44.8111 66.8228 46.0502 71.3186 48.3891 75.261C50.728 79.2033 54.0813 82.4485 58.1008 84.6593L58.1829 84.7047V90.7927C58.1912 91.7763 58.5882 92.7168 59.2876 93.4094C59.9871 94.102 60.9322 94.4906 61.9173 94.4906C62.9023 94.4906 63.8475 94.102 64.5469 93.4094C65.2464 92.7168 65.6434 91.7763 65.6516 90.7927V87.4065L65.8404 87.4419C68.5257 87.9465 79.8332 88.026 82.566 87.6681L82.746 87.6445Z" fill="#3F3D56"/>
<path d="M64.882 18.9495L47.2395 24.2438C46.6784 24.4128 46.2074 24.7974 45.93 25.313C45.6527 25.8286 45.5916 26.4331 45.7603 26.9936C45.929 27.5541 46.3136 28.0248 46.8296 28.3024C47.3457 28.5799 47.951 28.6416 48.5125 28.4738L63.9516 23.8397L64.275 23.7426C64.3405 22.0784 64.7926 20.4522 65.5957 18.9924C65.4949 18.9472 65.3872 18.9192 65.2771 18.9097C65.1441 18.8969 65.0098 18.9104 64.882 18.9495Z" fill="#BAFA3D"/>
<path d="M48.2076 29.6025C47.9734 29.6019 47.7453 29.5279 47.5555 29.3908C47.3658 29.2538 47.2239 29.0606 47.1501 28.8387L46.0469 25.5145C46.0008 25.3757 45.9825 25.2292 45.9932 25.0833C46.0038 24.9375 46.0431 24.7951 46.1089 24.6644C46.1746 24.5337 46.2655 24.4173 46.3763 24.3216C46.4871 24.226 46.6157 24.1531 46.7547 24.1072L61.1139 19.3554C61.2529 19.3093 61.3996 19.2911 61.5457 19.3017C61.6918 19.3123 61.8343 19.3516 61.9652 19.4172C62.096 19.4828 62.2127 19.5735 62.3085 19.6842C62.4042 19.7948 62.4772 19.9232 62.5233 20.062L63.6265 23.3862C63.7183 23.6596 63.6999 23.9579 63.5752 24.218C63.4505 24.4781 63.2293 24.6795 62.9585 24.7796C62.9452 24.7846 62.9318 24.7893 62.9183 24.7937L48.5595 29.5453C48.446 29.5831 48.3272 29.6024 48.2076 29.6025Z" fill="#2F2E41"/>
<path d="M75.099 13.046C72.2009 13.0471 69.417 14.1742 67.3364 16.1888C65.2559 18.2033 64.042 20.9472 63.9518 23.8397C63.9486 23.9526 63.947 24.0672 63.947 24.1817C63.947 26.3842 64.6011 28.5371 65.8265 30.3684C67.0519 32.1997 68.7936 33.627 70.8313 34.4698C72.8691 35.3127 75.1114 35.5332 77.2747 35.1035C79.4379 34.6738 81.425 33.6133 82.9847 32.0559C84.5443 30.4985 85.6064 28.5143 86.0367 26.3542C86.467 24.1941 86.2462 21.955 85.4021 19.9203C84.558 17.8855 83.1287 16.1463 81.2947 14.9227C79.4608 13.6991 77.3047 13.046 75.099 13.046ZM75.099 34.9993C72.2267 34.9963 69.473 33.8557 67.442 31.8276C65.411 29.7996 64.2686 27.0498 64.2656 24.1817C64.2656 24.0338 64.2688 23.8874 64.2752 23.7427C64.3615 21.6236 65.0696 19.5767 66.3116 17.8564C67.5536 16.136 69.2746 14.8182 71.2606 14.0667C73.2467 13.3152 75.4101 13.1632 77.4819 13.6296C79.5538 14.0961 81.4426 15.1604 82.9136 16.6901C84.3845 18.2199 85.3727 20.1477 85.7552 22.2338C86.1377 24.3198 85.8977 26.4722 85.065 28.4231C84.2323 30.3741 82.8437 32.0376 81.0718 33.2068C79.2999 34.376 77.2228 34.9994 75.099 34.9993Z" fill="#3F3D56"/>
<path d="M84.4985 24.1817C84.4985 26.671 83.5082 29.0583 81.7455 30.8185C79.9827 32.5787 77.5919 33.5676 75.099 33.5676C72.6061 33.5676 70.2153 32.5787 68.4525 30.8185C66.6898 29.0583 65.6995 26.671 65.6995 24.1817C65.6995 23.8842 65.7138 23.5915 65.7408 23.302C65.9674 20.8996 67.1118 18.6766 68.9365 17.0945C70.7613 15.5125 73.1261 14.693 75.54 14.8062C77.9539 14.9195 80.2314 15.9567 81.8996 17.7025C83.5678 19.4483 84.4985 21.7687 84.4985 24.1817Z" fill="#000D0A"/>
<path d="M77.8981 24.8053C77.6702 24.5062 77.3705 24.2693 77.0267 24.1165C76.6026 23.938 76.1646 23.7944 75.7171 23.687V21.1321C76.405 21.2357 77.0501 21.5294 77.5795 21.98L78.0989 20.8744C77.8001 20.6087 77.4572 20.3971 77.0856 20.2492C76.6737 20.0826 76.2413 19.9719 75.7999 19.9199V18.625H74.5971V19.9326C74.1327 19.9847 73.6846 20.1349 73.2828 20.3733C72.9198 20.5878 72.6142 20.8869 72.3922 21.2451C72.1803 21.5945 72.0705 21.9962 72.0752 22.4048C72.0545 22.8475 72.1829 23.2843 72.44 23.6456C72.6766 23.9584 72.9891 24.2059 73.3481 24.3647C73.7789 24.5484 74.2245 24.6958 74.68 24.8053V27.2536C73.8683 27.1925 73.0948 26.8843 72.4639 26.3707L71.9446 27.4779C72.2973 27.7691 72.6985 27.9963 73.1299 28.1492C73.6025 28.3181 74.0963 28.4209 74.5972 28.4547V29.7385H75.7999V28.4308C76.468 28.3579 77.0946 28.0711 77.5858 27.6131C77.8022 27.4059 77.9731 27.1561 78.0877 26.8796C78.2024 26.603 78.2582 26.3057 78.2518 26.0064C78.2718 25.5778 78.1472 25.1549 77.8981 24.8053ZM74.68 23.4165C74.387 23.3278 74.1146 23.1818 73.8786 22.987C73.7851 22.9039 73.7112 22.8012 73.6622 22.6863C73.6132 22.5713 73.5902 22.4469 73.5951 22.322C73.5864 22.0387 73.6906 21.7635 73.885 21.5569C74.1004 21.3401 74.3784 21.196 74.68 21.1448V23.4165ZM76.4723 26.8018C76.269 27.0099 76.0044 27.1476 75.7171 27.1947V25.0885C75.9917 25.1621 76.2486 25.2903 76.4723 25.4655C76.5571 25.5378 76.6244 25.6283 76.6694 25.7302C76.7144 25.8321 76.7357 25.9428 76.7319 26.0541C76.743 26.3271 76.6502 26.5942 76.4723 26.8018Z" fill="#BAFA3D"/>
<path d="M48.7194 43.075C48.4731 43.0746 48.2339 42.9931 48.0387 42.843C47.8436 42.693 47.7034 42.4829 47.6401 42.2453L47.0394 39.9752C46.9642 39.6898 47.0055 39.3864 47.154 39.1313C47.3026 38.8763 47.5464 38.6906 47.832 38.6148L66.7809 33.6149C67.0669 33.5404 67.3707 33.582 67.626 33.7306C67.8813 33.8793 68.0673 34.1228 68.1432 34.408L68.6521 36.3313L68.5567 36.3386C63.6969 36.716 59.047 38.4754 55.1572 41.4088L55.1296 41.4221L49.0023 43.0383C48.91 43.0627 48.8149 43.075 48.7194 43.075Z" fill="#2F2E41"/>
<path d="M45.5812 54.2881C43.3584 53.9602 41.2325 53.1576 39.3485 51.9349C38.4151 51.3297 37.551 50.624 36.7717 49.8305C36.0026 49.0472 35.2668 48.1568 34.8858 47.1136C34.5193 46.1483 34.5382 45.0794 34.9386 44.1277C35.3335 43.1818 36.088 42.4309 37.0366 42.0396C37.9908 41.6597 39.1437 41.619 40.0724 42.0352C40.5149 42.2288 40.8978 42.5366 41.1819 42.927C41.3139 43.1069 41.4117 43.3095 41.4703 43.5248C41.5247 43.7199 41.5296 43.9254 41.4847 44.1228C41.4302 44.3199 41.3342 44.5031 41.203 44.6602C41.0718 44.8172 40.9086 44.9444 40.7241 45.0332C40.3182 45.2412 39.8784 45.3751 39.4254 45.4288C38.9697 45.4908 38.3152 45.5473 37.9489 45.182C37.8734 45.1098 37.8141 45.0225 37.7748 44.9258C37.7473 44.8517 37.7378 44.7722 37.7473 44.6938C37.742 44.7284 37.7694 44.6187 37.7679 44.6231C37.7621 44.6393 37.737 44.6788 37.7726 44.6181C37.7838 44.5981 37.7962 44.5788 37.8098 44.5603C37.7977 44.576 37.7711 44.602 37.8186 44.5573C37.8578 44.5144 37.9082 44.4833 37.9642 44.4675C37.9863 44.4611 38.0086 44.456 38.0308 44.4499C38.087 44.4346 37.9747 44.4508 38.0322 44.4489C38.0544 44.4482 38.0769 44.4488 38.099 44.4478C38.1554 44.4453 38.0433 44.4324 38.0974 44.446C38.1184 44.4513 38.1392 44.4564 38.1598 44.4629C38.2048 44.477 38.128 44.43 38.1585 44.4652C38.1942 44.5065 38.121 44.4251 38.1616 44.465C38.1818 44.4848 38.2008 44.5058 38.2185 44.5278C38.2889 44.5971 38.3838 44.636 38.4826 44.636C38.5815 44.636 38.6763 44.5971 38.7467 44.5278C38.8146 44.4567 38.8525 44.3623 38.8525 44.2641C38.8525 44.1659 38.8146 44.0714 38.7467 44.0004C38.3784 43.5446 37.6511 43.6572 37.2786 44.0424C36.8035 44.5338 36.9916 45.3124 37.4537 45.7411C37.9769 46.2264 38.7178 46.2602 39.3907 46.1788C39.9594 46.1244 40.5136 45.968 41.0267 45.7171C41.5366 45.467 41.9353 45.0368 42.1458 44.51C42.2408 44.2288 42.2749 43.9307 42.2459 43.6354C42.2169 43.34 42.1254 43.0542 41.9775 42.7968C41.3833 41.6815 40.1531 41.1097 38.9371 41.0106C38.311 40.9616 37.6814 41.0371 37.0847 41.2327C36.4881 41.4283 35.9362 41.7401 35.461 42.1501C34.5451 42.9734 33.9811 44.1168 33.8857 45.3437C33.7795 46.6157 34.2738 47.851 34.9944 48.8776C35.7488 49.9206 36.649 50.8502 37.6676 51.6382C39.6589 53.2257 41.9947 54.3257 44.4881 54.8502C44.7847 54.9113 45.0829 54.9637 45.3826 55.0073C45.478 55.0303 45.5786 55.0163 45.664 54.9679C45.7493 54.9195 45.813 54.8404 45.842 54.7468C45.8676 54.6515 45.8546 54.5499 45.8058 54.4641C45.757 54.3782 45.6763 54.315 45.5812 54.2881L45.5812 54.2881Z" fill="#3F3D56"/>
<path d="M81.1695 38.0814C77.9128 38.0355 74.6664 38.118 71.4302 38.329C70.324 38.4011 69.3669 38.7915 69.3669 39.4477C69.3669 39.9963 70.3164 40.639 71.4302 40.5663C74.6647 40.3554 77.9112 40.2729 81.1695 40.3188C83.8259 40.3562 83.8243 38.1188 81.1695 38.0814Z" fill="#CCCCCC"/>
<path d="M76.3561 40.2079C76.0042 40.2079 67.7363 40.1948 67.7363 39.0544C67.7363 37.9141 76.0042 37.901 76.3561 37.901C76.7081 37.901 84.9759 37.9141 84.9759 39.0544C84.9759 40.1948 76.7081 40.2079 76.3561 40.2079ZM68.0596 39.0544C68.2859 39.4002 71.325 39.8898 76.3561 39.8898C81.3873 39.8898 84.4263 39.4002 84.6526 39.0544C84.4264 38.7088 81.3873 38.2192 76.3561 38.2192C71.325 38.2192 68.2859 38.7088 68.0596 39.0544V39.0544Z" fill="#3F3D56"/>
<path d="M102.588 70.1871C104.418 70.1363 106.696 70.0729 108.451 68.7929C108.973 68.3961 109.403 67.89 109.709 67.3101C110.015 66.7301 110.19 66.0904 110.223 65.4357C110.258 64.4248 109.893 63.5424 109.193 62.9518C108.276 62.1784 106.938 61.997 105.495 62.4203L106.99 51.5155L105.893 51.3654L104.136 64.1854L105.052 63.7656C106.114 63.2792 107.572 63.0317 108.478 63.7961C108.7 63.996 108.874 64.2444 108.984 64.522C109.095 64.7996 109.14 65.099 109.116 65.3968C109.089 65.8841 108.958 66.3599 108.73 66.7918C108.503 67.2237 108.185 67.6017 107.798 67.8999C106.432 68.896 104.616 69.0245 102.557 69.0819L102.588 70.1871Z" fill="#3F3D56"/>
<path d="M99.5548 52.4559H93.5913V53.5616H99.5548V52.4559Z" fill="#3F3D56"/>
<path d="M51.4181 48.1602C51.1527 48.1594 50.8962 48.0642 50.6946 47.8917C50.4931 47.7192 50.3597 47.4806 50.3182 47.2188L49.9542 44.8992C49.9087 44.6074 49.981 44.3096 50.1552 44.071C50.3294 43.8324 50.5913 43.6726 50.8833 43.6266L70.245 40.5973C70.5372 40.5519 70.8354 40.6241 71.0743 40.798C71.3132 40.9719 71.4733 41.2334 71.5194 41.525L71.8833 43.8448C71.9288 44.1365 71.8566 44.4343 71.6824 44.6729C71.5082 44.9115 71.2463 45.0713 70.9543 45.1174L51.5926 48.1466C51.5349 48.1556 51.4765 48.1602 51.4181 48.1602Z" fill="#2F2E41"/>
<path d="M43.4053 20.9758C47.8926 20.9758 51.5303 17.3434 51.5303 12.8626C51.5303 8.38176 47.8926 4.74936 43.4053 4.74936C38.918 4.74936 35.2803 8.38176 35.2803 12.8626C35.2803 17.3434 38.918 20.9758 43.4053 20.9758Z" fill="#BAFA3D"/>
<path d="M48.0054 14.9618C48.2651 14.8711 48.5023 14.726 48.7011 14.5361C48.8326 14.4007 48.9329 14.2383 48.995 14.0601C49.057 13.882 49.0793 13.6924 49.0603 13.5048C49.0493 13.371 49.0074 13.2416 48.938 13.1267C48.8685 13.0118 48.7734 12.9144 48.6601 12.8423C48.3661 12.6617 47.9775 12.6686 47.5852 12.8502L47.5399 9.68317L47.2214 9.68769L47.2746 13.4108L47.5171 13.252C47.7983 13.0681 48.2024 12.9348 48.4932 13.1133C48.5651 13.1606 48.6251 13.2238 48.6685 13.298C48.712 13.3722 48.7377 13.4554 48.7437 13.5412C48.7572 13.681 48.7402 13.822 48.6942 13.9547C48.6481 14.0874 48.5739 14.2086 48.4767 14.3101C48.1313 14.6524 47.6201 14.767 47.0366 14.8719L47.0931 15.185C47.4033 15.138 47.7086 15.0633 48.0054 14.9618Z" fill="#2F2E41"/>
<path d="M50.821 9.46085L49.1243 9.71744L49.172 10.032L50.8687 9.77539L50.821 9.46085Z" fill="#2F2E41"/>
<path d="M45.4653 10.2706L43.7686 10.5272L43.8163 10.8417L45.513 10.5851L45.4653 10.2706Z" fill="#2F2E41"/>
<path d="M48.7747 48.0184C48.4825 48.0178 48.1974 47.9283 47.9574 47.7619C47.7173 47.5955 47.5337 47.3601 47.431 47.0869L41.829 32.1063C41.1443 30.2691 41.2174 28.2356 42.0323 26.4521C42.8472 24.6686 44.3373 23.2807 46.1758 22.5929L50.7308 20.8945C50.9069 20.8283 51.0944 20.7977 51.2825 20.8042C51.4705 20.8107 51.6555 20.8543 51.8266 20.9324C51.9973 21.0086 52.1511 21.118 52.279 21.2541C52.4069 21.3903 52.5063 21.5506 52.5714 21.7256L62.9486 41.2902C63.016 41.4666 63.0477 41.6546 63.0421 41.8433C63.0364 42.032 62.9934 42.2178 62.9156 42.3898C62.8378 42.5619 62.7266 42.7169 62.5886 42.8459C62.4505 42.9749 62.2882 43.0754 62.1111 43.1416L49.2758 47.9274C49.1156 47.9874 48.9458 48.0182 48.7747 48.0184Z" fill="#2F2E41"/>
<path d="M49.3486 21.4097L59.6449 35.1585L52.6779 21.554C52.6203 21.3953 52.532 21.2494 52.418 21.1247C52.304 21.0001 52.1666 20.8991 52.0134 20.8275C51.8603 20.7559 51.6946 20.7151 51.5257 20.7075C51.3568 20.6999 51.1881 20.7256 51.0291 20.7831L49.3486 21.4097Z" fill="#E6E6E6"/>
<path d="M65.6516 31.8511L47.2675 30.6686C46.9778 30.65 46.6945 30.5745 46.4339 30.4466C46.1734 30.3186 45.9406 30.1407 45.7489 29.9229C45.5572 29.7051 45.4103 29.4517 45.3166 29.1773C45.223 28.9028 45.1844 28.6126 45.2031 28.3233C45.2217 28.0339 45.2973 27.7511 45.4254 27.4909C45.5536 27.2307 45.7318 26.9982 45.9499 26.8068C46.168 26.6154 46.4217 26.4687 46.6966 26.3752C46.9714 26.2817 47.262 26.2431 47.5518 26.2618L65.9359 27.4442C66.0716 27.4529 66.2043 27.4882 66.3263 27.5481C66.4483 27.608 66.5574 27.6914 66.6471 27.7934C66.7369 27.8954 66.8057 28.014 66.8496 28.1425C66.8934 28.2711 66.9115 28.407 66.9027 28.5425L66.7516 30.8856C66.734 31.1593 66.6081 31.4148 66.4019 31.5958C66.1956 31.7769 65.9257 31.8687 65.6516 31.8511Z" fill="#BAFA3D"/>
<path d="M60.7392 32.6091C60.7149 32.6091 60.6906 32.6084 60.6662 32.6068H60.6661L45.5701 31.6358C45.424 31.6265 45.2811 31.5884 45.1497 31.5239C45.0183 31.4594 44.9009 31.3696 44.8042 31.2598C44.7075 31.15 44.6334 31.0222 44.5862 30.8838C44.539 30.7453 44.5195 30.599 44.5289 30.4531L44.7871 26.4508C44.7965 26.3049 44.8346 26.1622 44.8992 26.031C44.9639 25.8998 45.0537 25.7825 45.1637 25.686C45.2738 25.5895 45.4017 25.5155 45.5404 25.4684C45.679 25.4212 45.8256 25.4018 45.9717 25.4112L61.0677 26.3821C61.3627 26.4014 61.638 26.5368 61.8332 26.7585C62.0284 26.9802 62.1275 27.2702 62.1089 27.5649L61.8508 31.5672C61.8365 31.7816 61.7606 31.9874 61.6322 32.1599C61.5037 32.3323 61.3281 32.464 61.1265 32.5393C61.0026 32.5856 60.8714 32.6092 60.7392 32.6091Z" fill="#2F2E41"/>
<path d="M43.3122 7.4674C44.381 6.54944 45.8488 7.37062 47.0746 7.22687C48.2474 7.08933 49.1734 6.03891 49.41 4.92298C49.6859 3.62105 49.0092 2.3167 48.0117 1.50497C46.9192 0.615928 45.4703 0.360705 44.0973 0.525185C42.5236 0.713698 41.0845 1.44617 39.7931 2.33213C38.5466 3.16081 37.4003 4.13072 36.3772 5.22252C35.4609 6.23296 34.6846 7.43738 34.4367 8.79706C34.2115 10.0327 34.3835 11.402 35.115 12.4488C35.5029 12.9853 36.0228 13.413 36.6244 13.6905C37.2517 13.9981 37.9208 14.218 38.5286 14.5657C39.4474 15.0915 40.3405 16.1818 40.0527 17.3164C39.991 17.5643 39.8692 17.7932 39.698 17.983C39.4924 18.2109 39.1215 17.9097 39.3277 17.6812C39.6898 17.2798 39.6755 16.7445 39.4825 16.2653C39.2531 15.7253 38.8468 15.2792 38.3302 14.9999C37.694 14.6367 36.9917 14.4126 36.3397 14.0818C35.7156 13.7796 35.1739 13.3313 34.7607 12.7751C33.9803 11.6922 33.7469 10.2829 33.9239 8.97922C34.1154 7.56841 34.8413 6.2864 35.7513 5.21208C36.7416 4.04292 37.9581 3.05325 39.2008 2.16417C40.5343 1.21017 42.0075 0.403638 43.6377 0.111927C45.0509 -0.140941 46.5826 0.0147407 47.8184 0.783721C48.9718 1.50151 49.8564 2.73626 49.9443 4.11597C49.9759 4.74373 49.8394 5.36856 49.5488 5.92615C49.2583 6.48374 48.8242 6.95396 48.2912 7.2884C47.7444 7.61518 47.1085 7.76227 46.4735 7.70891C45.7945 7.66551 45.1149 7.45791 44.4317 7.51555C44.1225 7.53429 43.8278 7.65316 43.5924 7.85415C43.3589 8.05471 43.0805 7.66632 43.3122 7.46741V7.4674Z" fill="#2F2E41"/>
<path d="M136.81 95H19.1896C19.1394 94.9998 19.0913 94.9798 19.0559 94.9443C19.0204 94.9088 19.0005 94.8607 19.0005 94.8106C19.0005 94.7604 19.0204 94.7123 19.0559 94.6768C19.0913 94.6413 19.1394 94.6213 19.1896 94.6212H136.81C136.861 94.6212 136.909 94.6411 136.944 94.6766C136.98 94.7122 137 94.7603 137 94.8106C137 94.8608 136.98 94.909 136.944 94.9445C136.909 94.98 136.861 95 136.81 95Z" fill="#3F3D56"/>
</g>
<defs>
<clipPath id="clip0_824_56">
<rect width="334" height="196" fill="white" transform="translate(0 95)"/>
</clipPath>
<clipPath id="clip1_824_56">
<rect width="118" height="95" fill="white" transform="translate(19)"/>
</clipPath>
</defs>
</svg>
