<svg width="312" height="241" viewBox="0 0 312 241" fill="none" xmlns="http://www.w3.org/2000/svg">
<path d="M40.7034 106.051C29.0895 101.196 19.7795 92.1083 14.6791 80.6467C11.8254 74.1541 10.4323 67.1132 9.63901 60.0708C8.86076 53.1616 8.70186 45.8734 11.69 39.5889C13.3261 36.148 15.83 33.1875 18.9579 30.9959C22.0857 28.8044 25.7308 27.4565 29.5378 27.0837C33.3448 26.7109 37.184 27.3258 40.6811 28.8686C44.1783 30.4114 47.2142 32.8294 49.4929 35.8869C51.4543 38.5186 52.8333 41.6764 52.8685 44.9526C52.9423 51.8248 47.3892 57.3399 44.9531 63.7708C42.4357 70.4164 43.343 77.7796 43.771 84.869C44.199 91.9583 43.9277 99.6438 39.6049 105.295" fill="#F2F2F2"/>
<path d="M248.997 192.948C261.262 190.089 271.965 182.674 278.915 172.219C282.817 166.291 285.371 159.58 287.333 152.768C289.259 146.085 290.637 138.925 288.744 132.232C287.707 128.568 285.735 125.233 283.018 122.553C280.301 119.874 276.933 117.94 273.242 116.94C269.551 115.941 265.662 115.91 261.956 116.851C258.249 117.791 254.85 119.672 252.091 122.308C249.716 124.577 247.827 127.462 247.243 130.687C246.019 137.45 250.569 143.81 251.894 150.555C253.262 157.525 251.133 164.635 249.523 171.554C247.913 178.473 246.892 186.096 250.207 192.385" fill="#F2F2F2"/>
<path d="M155.46 181.913C137.978 181.968 120.969 176.263 107.087 165.688C93.4955 155.355 83.5656 140.981 78.7383 124.652L79.4295 124.452C89.192 157.862 120.457 181.196 155.46 181.196C165.926 181.216 176.291 179.158 185.948 175.143L186.225 175.804C176.48 179.856 166.021 181.932 155.46 181.913Z" fill="#E6E6E6"/>
<path d="M231.033 78.8691C220.649 45.8315 190.278 23.6343 155.46 23.6343C145.143 23.6157 134.922 25.6154 125.38 29.5198L125.106 28.8575C137.871 23.6554 151.77 21.8256 165.455 23.5458C179.141 25.2659 192.146 30.4776 203.21 38.6748C216.675 48.7129 226.645 62.6935 231.72 78.6555L231.033 78.8691Z" fill="#E6E6E6"/>
<path d="M252.623 206.979C219.882 206.979 193.246 180.474 193.246 147.893C193.246 115.313 219.882 88.8077 252.623 88.8077C285.363 88.8077 312 115.313 312 147.893C312 180.474 285.363 206.979 252.623 206.979ZM252.623 89.5239C220.279 89.5239 193.965 115.708 193.965 147.893C193.965 180.079 220.279 206.263 252.623 206.263C284.967 206.263 311.28 180.079 311.28 147.893C311.28 115.708 284.967 89.5239 252.623 89.5239Z" fill="#3F3D56"/>
<path d="M59.3772 118.172C26.6364 118.172 0 91.6658 0 59.0858C0 26.5057 26.6364 0 59.3772 0C92.1179 0 118.754 26.5057 118.754 59.0858C118.754 91.6658 92.1179 118.172 59.3772 118.172ZM59.3772 0.716191C27.0334 0.716191 0.719723 26.9007 0.719723 59.0858C0.719723 91.2708 27.0334 117.455 59.3772 117.455C91.7209 117.455 118.035 91.2708 118.035 59.0858C118.035 26.9007 91.7209 0.716191 59.3772 0.716191Z" fill="#3F3D56"/>
<path d="M54.7605 59.418L49.5171 69.5515L54.6943 72.5049C54.6943 72.5049 58.246 61.1222 58.3506 60.6902C58.8861 60.4724 59.3426 60.098 59.6596 59.6164C59.9767 59.1348 60.1393 58.5688 60.126 57.9933C60.1128 57.4177 59.9242 56.8597 59.5853 56.3931C59.2464 55.9265 58.7732 55.5733 58.2282 55.3802C57.6832 55.187 57.0921 55.1631 56.5331 55.3115C55.9741 55.4599 55.4736 55.7737 55.0977 56.2114C54.7218 56.6491 54.4884 57.1899 54.4281 57.7625C54.3679 58.3351 54.4838 58.9124 54.7605 59.418V59.418Z" fill="#A0616A"/>
<path d="M27.8516 60.7963C30.1905 69.4195 38.5974 74.8963 45.5785 81.4623C46.4382 81.7625 47.3513 81.8809 48.2595 81.8099C49.1678 81.7389 50.0511 81.4801 50.8531 81.05C51.6551 80.62 52.3581 80.0281 52.9172 79.3123C53.4762 78.5965 53.879 77.7725 54.0998 76.8929L56.4527 67.73L50.4724 67.5709L47.9974 70.2474L39.9895 64.5691L27.8516 60.7963Z" fill="#3F3D56"/>
<path d="M243.795 157.074C244.811 157.14 245.76 157.598 246.442 158.35C247.123 159.102 247.483 160.089 247.444 161.101C247.433 161.307 247.405 161.511 247.36 161.712L258.89 168.94L252.515 171.746L242.543 164.451C241.72 164.201 241.004 163.687 240.506 162.989C240.007 162.291 239.755 161.449 239.789 160.593C239.813 160.107 239.932 159.63 240.141 159.189C240.351 158.749 240.645 158.353 241.007 158.026C241.37 157.699 241.794 157.446 242.255 157.281C242.715 157.117 243.204 157.044 243.693 157.068C243.727 157.07 243.761 157.072 243.795 157.074Z" fill="#FFB6B6"/>
<path d="M254.914 165.655L252.057 171.522L263.356 178.757C264.16 179.277 265.084 179.583 266.04 179.646C266.996 179.71 267.953 179.53 268.82 179.122C269.873 178.62 270.734 177.791 271.273 176.76C271.811 175.729 271.999 174.552 271.806 173.406L268.14 152.577C267.894 151.12 267.096 149.811 265.91 148.921C264.724 148.032 263.241 147.628 261.765 147.793C260.313 147.951 258.984 148.676 258.069 149.809C257.155 150.943 256.73 152.391 256.889 153.836C256.895 153.892 256.902 153.949 256.91 154.005C256.938 154.205 256.977 154.404 257.026 154.6L261.028 169.413L254.914 165.655Z" fill="#BAFA3D"/>
<path d="M244.645 168.034L240.39 157.108C240.245 156.734 240.255 156.318 240.418 155.952C240.58 155.585 240.883 155.297 241.258 155.152L243.651 154.229C244.027 154.085 244.445 154.095 244.813 154.256C245.182 154.418 245.471 154.719 245.617 155.093L249.872 166.018C250.017 166.392 250.007 166.808 249.844 167.175C249.682 167.541 249.379 167.829 249.004 167.974L246.611 168.897C246.235 169.041 245.817 169.032 245.449 168.87C245.08 168.708 244.791 168.407 244.645 168.034Z" fill="#3F3D56"/>
<path d="M241.755 155.601C241.553 155.68 241.39 155.835 241.302 156.032C241.215 156.23 241.209 156.454 241.287 156.656L245.542 167.581C245.621 167.782 245.777 167.944 245.975 168.031C246.174 168.119 246.399 168.124 246.602 168.046L248.995 167.123C249.197 167.045 249.36 166.89 249.448 166.692C249.535 166.495 249.54 166.271 249.462 166.069L245.207 155.144C245.129 154.942 244.973 154.78 244.774 154.693C244.576 154.606 244.35 154.601 244.148 154.679L241.755 155.601Z" fill="#BAFA3D"/>
<path d="M254.112 190.83H270.271V174.751H254.112V190.83Z" fill="#FFB8B8"/>
<path d="M215.791 222.106L209.619 220.04L206.183 236.756L210.364 238.156L215.791 222.106Z" fill="#FFB6B6"/>
<path d="M226.735 218.926L220.399 220.417L226.358 236.415L230.651 235.405L226.735 218.926Z" fill="#FFB6B6"/>
<path d="M269.691 195.031C272.93 216.517 229.8 203.814 229.8 203.814L216.277 222.377L208.36 220.945C208.36 220.945 211.922 209.801 218.284 194.862C221.109 188.227 253.191 189.848 253.191 189.848L253.857 184.646L272.21 184.288L269.691 195.031Z" fill="#2F2E41"/>
<path d="M228.438 199.204L216.692 199.473C218.575 215.59 220.235 222.019 220.235 222.019L227.073 219.871L228.438 199.204Z" fill="#2F2E41"/>
<path d="M260.46 148.621L263.712 144.461L268.352 144.261L268.815 148.173L271.114 149.228C273.409 157.906 273.764 166.979 272.152 175.808C271.844 176.097 271.619 176.462 271.5 176.867C271.381 177.271 271.373 177.699 271.476 178.107L271.625 178.699L271.611 178.72C271.122 179.488 270.956 180.417 271.149 181.306L272.247 183.247C272.641 183.945 272.877 184.72 272.94 185.519C273.002 186.317 272.889 187.119 272.608 187.869C272.328 188.62 271.886 189.3 271.315 189.864C270.743 190.427 270.055 190.86 269.298 191.132C262.549 193.566 256.223 194.472 251.543 187.642L250.072 163.839L260.46 148.621Z" fill="#BAFA3D"/>
<path d="M263.867 145.566C268.605 145.566 272.445 141.744 272.445 137.029C272.445 132.315 268.605 128.493 263.867 128.493C259.129 128.493 255.289 132.315 255.289 137.029C255.289 141.744 259.129 145.566 263.867 145.566Z" fill="#FFB8B8"/>
<path d="M268.173 126.739C271.805 126.809 274.686 130.161 274.608 134.227C277.296 137.018 276.407 140.433 274.161 144.085C270.052 144.56 269.093 144.757 265.49 146.219L265.016 144.012L263.94 146.887C263.024 147.307 262.115 147.768 261.214 148.27C260.566 145.312 260.726 142.437 262.468 139.932C264.016 137.707 260.25 135.066 257.556 135.439L257.596 133.396L256.919 135.427C255.87 136.195 254.708 135.917 253.518 135.362V135.362C251.586 125.375 266.537 122.644 268.173 126.739Z" fill="#2F2E41"/>
<path d="M212.265 240.983L209.516 240.626L209.364 237.979L207.768 240.398L200.476 239.451C200.126 239.405 199.8 239.25 199.546 239.007C199.291 238.764 199.121 238.447 199.061 238.101C199 237.756 199.053 237.4 199.21 237.086C199.367 236.772 199.621 236.516 199.934 236.356L206.283 233.111L206.626 230.499L212.704 231.659L212.265 240.983Z" fill="#2F2E41"/>
<path d="M232.229 239.476L229.479 239.828L228.654 237.308L227.731 240.052L220.437 240.986C220.087 241.031 219.732 240.964 219.424 240.793C219.115 240.623 218.87 240.36 218.723 240.041C218.576 239.722 218.535 239.365 218.607 239.021C218.678 238.678 218.858 238.366 219.12 238.131L224.427 233.382L224.09 230.77L230.263 230.35L232.229 239.476Z" fill="#2F2E41"/>
<path d="M244.83 159.071C245.845 159.137 246.795 159.595 247.476 160.347C248.157 161.099 248.517 162.086 248.478 163.098C248.467 163.304 248.439 163.508 248.394 163.709L259.925 170.937L253.55 173.743L243.578 166.448C242.755 166.198 242.038 165.684 241.54 164.986C241.042 164.288 240.79 163.446 240.823 162.59C240.847 162.104 240.967 161.627 241.176 161.186C241.385 160.746 241.679 160.35 242.042 160.023C242.404 159.696 242.828 159.443 243.289 159.278C243.75 159.114 244.239 159.041 244.728 159.065C244.762 159.067 244.796 159.069 244.83 159.071Z" fill="#FFB6B6"/>
<path d="M255.949 167.652L253.091 173.519L264.39 180.755C265.194 181.274 266.118 181.58 267.075 181.644C268.031 181.707 268.988 181.527 269.854 181.119C270.908 180.617 271.769 179.788 272.307 178.757C272.846 177.726 273.033 176.549 272.841 175.403L269.175 154.574C268.929 153.117 268.131 151.808 266.945 150.919C265.759 150.029 264.275 149.625 262.799 149.79C262.081 149.868 261.384 150.086 260.75 150.432C260.116 150.778 259.557 151.245 259.104 151.807C258.651 152.368 258.314 153.012 258.111 153.703C257.909 154.394 257.845 155.118 257.924 155.833C257.93 155.89 257.937 155.946 257.945 156.002C257.973 156.202 258.011 156.401 258.06 156.597L262.063 171.41L255.949 167.652Z" fill="#BAFA3D"/>
<path d="M39.7341 166.52L43.3587 168.147L51.39 155.01L46.0407 152.608L39.7341 166.52Z" fill="#A0616A"/>
<path d="M37.9006 170.225L49.0462 175.228L49.1097 175.088C49.6287 173.943 49.6695 172.64 49.223 171.465C48.7765 170.291 47.8794 169.34 46.7289 168.824L46.7286 168.824L45.3896 166.373L40.8942 166.205L39.9213 165.768L37.9006 170.225Z" fill="#2F2E41"/>
<path d="M84.6246 148.654L88.4525 147.585L86.1292 132.383L80.479 133.961L84.6246 148.654Z" fill="#A0616A"/>
<path d="M85.6109 152.666L97.383 149.378L97.3412 149.229C97 148.02 96.1901 146.995 95.0897 146.38C93.9892 145.765 92.6882 145.61 91.473 145.95L91.4727 145.95L88.8644 144.927L85.3103 147.671L84.2827 147.958L85.6109 152.666Z" fill="#2F2E41"/>
<path d="M26.6869 104.233C26.7848 107.051 32.808 114.655 35.9758 115.745C36.5143 115.931 36.829 116.033 36.829 116.033L37.9315 115.701L51.2834 111.681C53.6214 113.05 60.5957 113.746 66.3183 114.093C70.8731 114.37 73.4119 116.739 73.4119 116.739C74.7556 126.908 78.6294 134.322 83.0967 143.433L88.458 142.506L83.3931 108.566C83.2838 107.833 82.9604 107.148 82.4632 106.597C81.9659 106.045 81.3168 105.651 80.5964 105.464L44.1623 95.9801C44.1623 95.9801 42.153 95.6183 37.9152 97.6525C30.9386 101.002 26.6169 102.183 26.6869 104.233Z" fill="#2F2E41"/>
<path d="M33.6486 103.688C32.4267 106.232 34.2374 115.745 36.5405 118.168L37.1518 118.582L37.3585 118.689C38.74 123.339 53.5657 136.94 53.5657 136.94C48.5578 143.289 44.095 151.033 42.1037 159.711L47.8942 161.816L64.194 137.602C64.6209 136.968 64.8449 136.22 64.8365 135.457C64.8281 134.693 64.5877 133.951 64.147 133.326L57.4973 123.9L46.6621 103.015C38.9196 102.777 34.5387 101.837 33.6486 103.688Z" fill="#2F2E41"/>
<path d="M26.9046 105.341C26.8867 105.341 26.4623 104.236 26.4536 104.233C26.3093 104.193 24.3557 104.001 24.7951 100.783L25.3572 97.2406L24.8084 94.1129L23.8854 93.1944L25.3689 91.7184L24.4597 85.0235L24.1107 71.6191C23.2347 67.0148 23.4634 62.8036 27.7072 60.7757L32.5724 56.2852L38.1086 56.2185L44.3894 59.9237L47.4325 65.9606L48.6128 82.3212L49.4941 84.3675L49.4186 84.4354C49.4128 84.4407 48.8257 84.969 48.5619 85.2596C48.4342 85.4401 48.6739 86.7884 48.9699 87.9333L49.3494 90.7593L48.3929 91.4396L49.6365 92.9013L53.0269 98.6039L52.8238 98.5537C52.5949 98.4969 50.4628 101.682 27.0613 105.223C26.9533 105.239 26.9495 105.341 26.9046 105.341Z" fill="#3F3D56"/>
<path d="M53.7009 69.9333L51.7636 68.9273C51.4597 68.7691 51.2313 68.4973 51.1284 68.1717C51.0256 67.8461 51.0568 67.4931 51.2151 67.1903L55.8533 58.3451C56.0124 58.0427 56.2855 57.8153 56.6127 57.713C56.94 57.6107 57.2947 57.6417 57.5989 57.7993L59.5362 58.8052C59.8402 58.9634 60.0686 59.2352 60.1714 59.5608C60.2743 59.8865 60.2431 60.2394 60.0847 60.5422L55.4465 69.3874C55.2875 69.6899 55.0144 69.9172 54.6871 70.0195C54.3599 70.1219 54.0052 70.0908 53.7009 69.9333Z" fill="#3F3D56"/>
<path d="M57.1357 58.1327C56.9718 58.0478 56.7806 58.0311 56.6043 58.0862C56.4279 58.1414 56.2808 58.2639 56.1951 58.4269L51.5568 67.2721C51.4715 67.4352 51.4547 67.6254 51.5101 67.8009C51.5655 67.9764 51.6886 68.1228 51.8524 68.2081L53.7897 69.214C53.9537 69.299 54.1448 69.3157 54.3212 69.2605C54.4975 69.2054 54.6447 69.0829 54.7304 68.9199L59.3686 60.0747C59.4539 59.9115 59.4707 59.7213 59.4153 59.5458C59.3599 59.3704 59.2368 59.2239 59.073 59.1386L57.1357 58.1327Z" fill="#BAFA3D"/>
<path d="M36.5878 55.011C40.9594 55.011 44.5033 51.4845 44.5033 47.1344C44.5033 42.7843 40.9594 39.2578 36.5878 39.2578C32.2162 39.2578 28.6724 42.7843 28.6724 47.1344C28.6724 51.4845 32.2162 55.011 36.5878 55.011Z" fill="#A0616A"/>
<path d="M32.695 52.2076C32.348 51.9329 31.9151 51.7883 31.4718 51.7988C31.3343 51.8213 31.2032 51.8726 31.0871 51.9493C30.971 52.026 30.8726 52.1264 30.7984 52.2438C30.7571 52.2954 30.7036 52.336 30.6427 52.3618C30.5817 52.3876 30.5153 52.3978 30.4493 52.3916C29.6047 52.4222 27.8045 50.8631 27.6814 47.8547C27.6229 46.4249 26.7632 44.0056 28.1317 42.6953C28.2235 42.1665 29.2921 36.701 34.1092 36.5504C39.0409 36.3944 42.3239 37.3802 43.1125 39.2506C43.6602 40.7355 44.0766 42.2652 44.3569 43.8222L44.5223 44.748L44.1359 43.8899C44.1286 43.8738 43.4238 42.3376 42.1169 41.8251C42.0957 42.0751 42.0318 42.3197 41.9279 42.5484C41.5015 43.468 40.4265 44.0682 39.1891 44.0775C38.3342 44.0513 37.4911 43.8709 36.7009 43.5451C36.7904 43.6735 36.8406 43.825 36.8455 43.9813C36.8504 44.1375 36.8099 44.2919 36.7286 44.4257C36.6474 44.5595 36.5291 44.6671 36.3878 44.7355C36.2465 44.8039 36.0884 44.8302 35.9325 44.8112L35.7037 44.7829C35.6316 44.7739 35.5587 44.7903 35.4975 44.8293C35.4363 44.8683 35.3908 44.9273 35.3688 44.9962C35.3468 45.0651 35.3497 45.1395 35.3771 45.2065C35.4044 45.2734 35.4545 45.3288 35.5185 45.3629L35.72 45.47L35.4755 45.5877C34.4915 46.0245 33.6806 46.7736 33.1698 47.7176C32.659 48.6617 32.4769 49.7477 32.6521 50.8056L32.9371 52.401L32.695 52.2076Z" fill="#2F2E41"/>
<path d="M158.019 173.919C157.802 173.929 157.588 173.873 157.405 173.757C157.222 173.642 157.079 173.474 156.995 173.275C156.912 173.076 156.892 172.856 156.938 172.645C156.984 172.435 157.094 172.243 157.253 172.097L157.325 171.81C157.316 171.787 157.306 171.764 157.296 171.741C157.078 171.229 156.713 170.792 156.246 170.485C155.779 170.179 155.232 170.016 154.672 170.018C154.113 170.02 153.567 170.187 153.102 170.497C152.638 170.807 152.276 171.247 152.061 171.761C151.205 173.813 150.115 175.869 149.847 178.038C149.728 178.997 149.778 179.97 149.994 180.912C147.983 176.546 146.939 171.802 146.932 166.999C146.931 165.794 146.999 164.59 147.133 163.393C147.245 162.411 147.399 161.436 147.597 160.468C148.674 155.217 150.989 150.295 154.349 146.107C155.976 145.224 157.291 143.866 158.118 142.216C158.418 141.623 158.63 140.99 158.747 140.336C158.564 140.36 158.377 140.375 158.194 140.387C158.136 140.39 158.076 140.393 158.019 140.396L157.998 140.397C157.796 140.406 157.596 140.357 157.422 140.256C157.247 140.154 157.106 140.005 157.016 139.825C156.925 139.646 156.888 139.444 156.91 139.245C156.931 139.045 157.01 138.856 157.138 138.7C157.217 138.603 157.296 138.506 157.375 138.409C157.496 138.259 157.619 138.112 157.739 137.963C157.753 137.949 157.766 137.934 157.778 137.918C157.917 137.747 158.055 137.58 158.194 137.409C157.941 137.019 157.601 136.692 157.201 136.454C155.814 135.646 153.901 136.206 152.9 137.454C151.895 138.702 151.705 140.453 152.054 142.013C152.397 143.339 152.965 144.599 153.733 145.736C153.658 145.832 153.579 145.925 153.504 146.02C152.13 147.779 150.931 149.668 149.927 151.66C150.171 149.428 149.88 147.172 149.076 145.075C148.262 143.12 146.736 141.474 145.393 139.785C143.778 137.755 140.468 138.641 140.184 141.213C140.181 141.238 140.179 141.263 140.176 141.288C140.376 141.4 140.571 141.519 140.762 141.645C141.002 141.805 141.188 142.033 141.296 142.299C141.404 142.566 141.428 142.859 141.365 143.14C141.303 143.42 141.157 143.675 140.946 143.872C140.735 144.069 140.47 144.197 140.184 144.241L140.155 144.245C140.226 144.961 140.352 145.671 140.531 146.368C141.05 148.313 141.968 150.131 143.226 151.707C144.484 153.283 146.056 154.583 147.843 155.527C147.961 155.587 148.075 155.646 148.192 155.703C147.183 158.549 146.55 161.513 146.309 164.521C146.173 166.296 146.181 168.079 146.333 169.852L146.324 169.789C145.939 167.817 144.882 166.038 143.331 164.752C141.028 162.869 137.774 162.176 135.289 160.662C135.025 160.494 134.718 160.404 134.404 160.403C134.091 160.402 133.783 160.491 133.518 160.658C133.253 160.825 133.042 161.065 132.909 161.348C132.777 161.631 132.728 161.945 132.769 162.255C132.773 162.277 132.776 162.299 132.78 162.321C133.15 162.471 133.511 162.644 133.859 162.839C134.059 162.951 134.254 163.07 134.446 163.196C134.686 163.355 134.872 163.584 134.979 163.85C135.087 164.117 135.111 164.41 135.049 164.69C134.986 164.971 134.84 165.226 134.629 165.423C134.419 165.619 134.153 165.748 133.868 165.792L133.838 165.796C133.817 165.799 133.799 165.802 133.778 165.805C134.411 167.309 135.299 168.693 136.404 169.897C137.769 171.354 139.418 172.519 141.251 173.319C143.084 174.119 145.062 174.539 147.064 174.551H147.067C147.611 176.901 148.398 179.188 149.416 181.376H157.809C157.839 181.283 157.866 181.187 157.893 181.094C157.116 181.143 156.336 181.097 155.571 180.957C156.193 180.196 156.816 179.43 157.439 178.67C157.452 178.656 157.465 178.641 157.478 178.625C157.793 178.236 158.112 177.85 158.428 177.461L158.428 177.46C158.445 176.267 158.308 175.077 158.019 173.92L158.019 173.919Z" fill="#E6E6E6"/>
<path d="M198.359 44.4279C198.521 44.5712 198.634 44.7605 198.685 44.9703C198.735 45.18 198.719 45.4001 198.639 45.6006C198.56 45.8011 198.42 45.9725 198.239 46.0913C198.059 46.2102 197.845 46.2709 197.629 46.2652L197.376 46.4201C197.367 46.4432 197.357 46.4662 197.348 46.4893C197.145 47.0079 197.1 47.5746 197.219 48.1184C197.339 48.6622 197.617 49.1588 198.019 49.5458C198.421 49.9328 198.929 50.193 199.479 50.2936C200.029 50.3943 200.597 50.3309 201.111 50.1115C203.164 49.2366 205.386 48.5217 207.1 47.1543C207.857 46.5496 208.504 45.8187 209.01 44.9942C207.388 49.5171 204.808 53.6402 201.445 57.0839C200.6 57.9472 199.707 58.7628 198.771 59.5269C198.002 60.1526 197.208 60.7435 196.388 61.2993C191.933 64.3112 186.823 66.2285 181.479 66.8938C179.695 66.3965 177.8 66.4555 176.05 67.0627C175.42 67.2793 174.824 67.5857 174.282 67.9722C174.43 68.0825 174.574 68.2013 174.714 68.3201C174.757 68.3577 174.802 68.3973 174.845 68.4349L174.861 68.4492C175.012 68.5828 175.121 68.7569 175.174 68.9505C175.228 69.1442 175.224 69.3491 175.163 69.5407C175.103 69.7323 174.987 69.9023 174.832 70.0303C174.676 70.1582 174.487 70.2387 174.286 70.2621C174.162 70.2765 174.037 70.2909 173.912 70.3052C173.721 70.3289 173.53 70.3482 173.339 70.3718C173.319 70.3724 173.299 70.3741 173.279 70.3769C173.06 70.4029 172.844 70.4269 172.625 70.453C172.532 70.9077 172.546 71.3777 172.666 71.8261C173.092 73.368 174.855 74.2958 176.448 74.0977C178.043 73.9016 179.406 72.7792 180.25 71.4201C180.935 70.2316 181.412 68.9356 181.66 67.5879C181.781 67.5715 181.902 67.5594 182.023 67.543C184.241 67.2381 186.424 66.7177 188.54 65.9891C186.8 67.4171 185.426 69.2358 184.531 71.2956C183.743 73.2606 183.681 75.4992 183.458 77.6425C183.191 80.2169 186.182 81.8815 188.191 80.2367C188.21 80.2208 188.229 80.2048 188.249 80.1888C188.184 79.9699 188.128 79.7491 188.079 79.5262C188.019 79.245 188.046 78.9524 188.156 78.6867C188.266 78.4209 188.454 78.1944 188.696 78.0368C188.937 77.8793 189.221 77.798 189.51 77.8037C189.799 77.8093 190.079 77.9016 190.314 78.0686L190.338 78.0856C190.789 77.5236 191.197 76.9283 191.557 76.3048C192.55 74.5509 193.168 72.6119 193.372 70.6093C193.577 68.6066 193.363 66.5836 192.745 64.667C192.703 64.5426 192.663 64.4204 192.619 64.2981C195.338 62.9611 197.87 61.278 200.152 59.2912C201.495 58.115 202.739 56.8327 203.874 55.4569L203.837 55.5082C202.729 57.1878 202.238 59.1962 202.447 61.1944C202.775 64.1423 204.619 66.8988 205.337 69.7083C205.408 70.0125 205.565 70.2903 205.789 70.5088C206.013 70.7273 206.296 70.8774 206.603 70.9415C206.91 71.0055 207.229 70.9809 207.522 70.8704C207.816 70.7599 208.072 70.5682 208.259 70.3179C208.272 70.2998 208.285 70.2817 208.298 70.2635C208.138 69.8987 208.001 69.5244 207.888 69.1427C207.824 68.9238 207.767 68.7029 207.719 68.4801C207.659 68.1989 207.685 67.9063 207.795 67.6406C207.905 67.3748 208.094 67.1483 208.335 66.9907C208.577 66.8332 208.86 66.7519 209.149 66.7575C209.438 66.7632 209.718 66.8555 209.953 67.0224L209.977 67.0396C209.995 67.052 210.01 67.0624 210.027 67.0749C210.628 65.5584 210.963 63.9503 211.016 62.3209C211.061 60.3295 210.697 58.3499 209.945 56.5036C209.194 54.6574 208.071 52.9832 206.647 51.5839L206.645 51.5818C207.904 49.5218 208.944 47.3371 209.749 45.063L203.739 39.2344C203.653 39.2799 203.566 39.3297 203.481 39.3774C204.072 39.8821 204.598 40.4568 205.048 41.0888C204.069 41.2008 203.085 41.3171 202.106 41.4291C202.086 41.4296 202.066 41.4313 202.047 41.4341C201.548 41.4934 201.048 41.5484 200.549 41.6077L200.549 41.6079C199.7 42.4504 198.964 43.3981 198.359 44.4276L198.359 44.4279Z" fill="#E6E6E6"/>
<path d="M53.6781 67.8031L46.1104 76.359L50.4079 80.4791C50.4079 80.4791 56.641 70.3014 56.8482 69.9079C57.4209 69.8265 57.9554 69.5741 58.3808 69.184C58.8063 68.7939 59.1027 68.2844 59.2308 67.723C59.3589 67.1616 59.3128 66.5747 59.0984 66.0399C58.8841 65.5052 58.5116 65.0478 58.0304 64.7283C57.5491 64.4088 56.9817 64.2422 56.4032 64.2505C55.8248 64.2589 55.2624 64.4418 54.7907 64.7751C54.319 65.1083 53.96 65.5763 53.7613 66.117C53.5627 66.6577 53.5336 67.2456 53.6781 67.8031Z" fill="#A0616A"/>
<path d="M27.2434 62.6122C27.3993 71.5426 34.2108 78.8935 39.3728 86.955C40.1329 87.4547 40.9895 87.791 41.8877 87.9424C42.786 88.0939 43.7061 88.0572 44.5892 87.8347C45.4724 87.6121 46.2992 87.2087 47.0167 86.6501C47.7342 86.0915 48.3267 85.39 48.7563 84.5906L53.2831 76.2748L47.5221 74.6698L44.4661 76.6652L38.0909 69.2156L27.2434 62.6122Z" fill="#3F3D56"/>
</svg>
