<svg width="294" height="267" viewBox="0 0 294 267" fill="none" xmlns="http://www.w3.org/2000/svg">
<path d="M203.116 265.847H119.715C107.206 265.847 97.0291 255.67 97.0291 243.16V22.6861C97.0291 10.177 107.206 0 119.715 0H203.116C215.625 0 225.802 10.177 225.802 22.6861C227.355 111.222 230.002 210.368 225.802 243.16C225.802 255.67 215.625 265.847 203.116 265.847L203.116 265.847Z" fill="#3F3D56"/>
<path d="M226.965 81.0977C226.436 81.0977 226.006 81.5281 226.006 82.0574V112.769C226.006 113.298 226.436 113.729 226.965 113.729C227.495 113.729 227.925 113.298 227.925 112.769V82.0574C227.925 81.5281 227.495 81.0977 226.965 81.0977Z" fill="#3F3D56"/>
<path d="M223.643 22.6863V243.156C223.643 254.045 215.169 262.951 204.453 263.642H204.448C204.29 263.652 204.132 263.661 203.968 263.666C203.685 263.68 203.402 263.685 203.114 263.685C203.114 263.685 202.059 263.608 200.13 263.464C198.181 263.321 195.345 263.105 191.809 262.821C190.748 262.74 189.63 262.649 188.45 262.553C186.098 262.361 183.517 262.15 180.748 261.91C179.644 261.819 178.502 261.718 177.336 261.617C171.376 261.104 164.701 260.504 157.661 259.822C156.471 259.712 155.272 259.597 154.062 259.477C153.746 259.443 99.1887 245.729 99.1887 243.157V22.6863C99.1887 11.3471 108.378 2.15759 119.717 2.15759H131.973C133.931 2.15759 135.505 3.68357 135.673 5.63663C135.687 5.7662 135.702 5.89575 135.726 6.02533C136.081 7.988 137.88 9.35561 139.877 9.35561H182.955C184.951 9.35561 186.751 7.988 187.106 6.02533C187.13 5.89575 187.144 5.76621 187.159 5.63663C187.327 3.68357 188.901 2.15759 190.859 2.15759H203.114C214.454 2.15759 223.643 11.3471 223.643 22.6863H223.643Z" fill="#000D0A"/>
<path d="M96.5493 58.064C96.02 58.064 95.5896 58.4945 95.5896 59.0238V66.7016C95.5896 67.2309 96.02 67.6614 96.5493 67.6614C97.0787 67.6614 97.5091 67.2309 97.5091 66.7016V59.0238C97.5091 58.4945 97.0787 58.064 96.5493 58.064Z" fill="#3F3D56"/>
<path d="M96.5493 81.0977C96.02 81.0977 95.5896 81.5281 95.5896 82.0574V96.9333C95.5896 97.4626 96.02 97.893 96.5493 97.893C97.0787 97.893 97.5091 97.4626 97.5091 96.9333V82.0574C97.5091 81.5281 97.0787 81.0977 96.5493 81.0977V81.0977Z" fill="#3F3D56"/>
<path d="M96.5493 102.212C96.02 102.212 95.5896 102.642 95.5896 103.172V118.047C95.5896 118.577 96.02 119.007 96.5493 119.007C97.0787 119.007 97.5091 118.577 97.5091 118.047V103.172C97.5091 102.642 97.0787 102.212 96.5493 102.212Z" fill="#3F3D56"/>
<path d="M131.658 5.51855H113.266C113.177 5.51855 113.104 5.59081 113.104 5.67994V7.75651C113.104 7.84564 113.177 7.91789 113.266 7.91789H131.658C131.747 7.91789 131.819 7.84564 131.819 7.75651V5.67994C131.819 5.59081 131.747 5.51855 131.658 5.51855Z" fill="#E6E6E6"/>
<path d="M193.891 7.91789C194.951 7.91789 195.811 7.05851 195.811 5.99842C195.811 4.93832 194.951 4.07895 193.891 4.07895C192.831 4.07895 191.972 4.93832 191.972 5.99842C191.972 7.05851 192.831 7.91789 193.891 7.91789Z" fill="#E6E6E6"/>
<path d="M199.17 7.91789C200.23 7.91789 201.089 7.05851 201.089 5.99842C201.089 4.93832 200.23 4.07895 199.17 4.07895C198.11 4.07895 197.25 4.93832 197.25 5.99842C197.25 7.05851 198.11 7.91789 199.17 7.91789Z" fill="#E6E6E6"/>
<path d="M204.448 7.91789C205.508 7.91789 206.367 7.05851 206.367 5.99842C206.367 4.93832 205.508 4.07895 204.448 4.07895C203.388 4.07895 202.529 4.93832 202.529 5.99842C202.529 7.05851 203.388 7.91789 204.448 7.91789Z" fill="#E6E6E6"/>
<path d="M7.44702 265.899C7.44702 266.242 7.72277 266.518 8.06614 266.518H293.31C293.653 266.518 293.929 266.242 293.929 265.899C293.929 265.555 293.653 265.28 293.31 265.28H8.06614C7.72277 265.28 7.44702 265.555 7.44702 265.899Z" fill="#CCCCCC"/>
<path d="M98.3953 261.833L92.5458 261.832L89.7632 239.27L98.3965 239.27L98.3953 261.833Z" fill="#905830"/>
<path d="M78.3542 261.7C78.172 262.007 78.0759 262.997 78.0759 263.353C78.0759 264.45 78.9648 265.339 80.0613 265.339H98.1764C98.9244 265.339 99.5308 264.732 99.5308 263.984V263.23C99.5308 263.23 100.427 260.963 98.5819 258.17C98.5819 258.17 96.2888 260.357 92.8624 256.931L91.852 255.1L84.5379 260.45L80.4838 260.949C79.5968 261.058 78.8105 260.932 78.3542 261.7H78.3542V261.7H78.3542Z" fill="#2F2E41"/>
<path d="M66.0468 230.494L60.1973 230.475L57.4863 207.904L66.1196 207.932L66.0468 230.494Z" fill="#905830"/>
<path d="M46.0064 230.298C45.8233 230.604 45.724 231.594 45.7229 231.951C45.7194 233.047 46.6054 233.939 47.7019 233.942L65.8169 234C66.5649 234.002 67.1733 233.398 67.1756 232.65L67.178 231.895C67.178 231.895 68.0814 229.632 66.2453 226.832C66.2453 226.832 63.9453 229.012 60.5297 225.575L59.5251 223.741L52.1941 229.067L48.1384 229.553C47.2511 229.66 46.4651 229.531 46.0065 230.298H46.0064V230.298Z" fill="#2F2E41"/>
<path d="M89.8637 124.858L82.5803 125.378C82.5803 125.378 57.9232 139.397 55.8422 142.519C53.7612 145.64 50.8999 150.062 53.5011 154.745C56.1023 159.427 54.1226 216.119 54.1226 216.119L66.5526 213.307L74.5166 153.992L91.1643 151.65C91.1643 151.65 96.887 163.997 94.806 174.211C92.725 184.426 91.6845 190.669 91.6845 190.669L89.0833 251.017L99.228 250.757L108.332 194.831L123.94 150.61L103.65 126.679L89.8637 124.858Z" fill="#2F2E41"/>
<path d="M125.76 60.8683L110.673 62.429L109.113 67.6314L94.5459 75.4351L99.2281 108.21L95.5864 113.933L97.1472 119.656C97.1472 119.656 92.9852 120.176 93.5055 123.297L84.1411 124.858C84.1411 124.858 96.5614 127.394 99.1953 139.912C101.829 152.431 123.679 153.992 123.679 153.992L140.847 100.407L142.408 68.6719L130.443 65.5505L125.76 60.8683Z" fill="#E6E6E6"/>
<path d="M117.809 58.8942C124.287 58.8942 129.538 53.6432 129.538 47.1659C129.538 40.6885 124.287 35.4375 117.809 35.4375C111.332 35.4375 106.081 40.6885 106.081 47.1659C106.081 53.6432 111.332 58.8942 117.809 58.8942Z" fill="#915830"/>
<path d="M111.714 57.7468C111.714 57.7468 101.309 57.2266 102.35 48.9027C99.7742 40.0387 102.054 34.2834 110.153 32.255C110.153 32.255 112.234 31.7347 112.754 31.7347C119.597 31.7347 123.159 33.8157 123.159 33.8157C123.159 33.8157 122.639 31.7552 123.159 32.2652C123.679 32.7752 124.2 33.8157 124.2 33.8157C124.2 33.8157 129.402 36.4169 129.402 41.6193C129.402 46.8218 129.402 44.7408 129.402 44.7408C129.402 44.7408 128.362 44.7408 127.321 41.6193C126.281 38.4979 119.544 40.5789 119.544 40.5789L120.038 41.6193L118.477 41.0991L116.916 42.6598L115.876 42.1396C115.876 42.1396 111.714 42.1396 112.234 42.1396C112.754 42.1396 112.392 45.6751 112.392 45.6751L108.592 49.9432L112.754 57.7468H111.714Z" fill="#2F2E41"/>
<path d="M56.2798 119.84C53.3179 121.456 51.7507 124.295 52.7794 126.18C53.8081 128.064 57.0431 128.282 60.0051 126.665C61.3016 125.958 62.3308 125.016 62.9921 124.023L75.4567 117.016L72.0439 111.236L60.1185 118.757C58.9252 118.776 57.5764 119.132 56.2798 119.84H56.2798Z" fill="#905830"/>
<path d="M98.3144 75.6778C98.3144 75.6778 93.4282 73.8175 91.7448 76.0568C90.0613 78.2962 78.9401 105.469 78.9401 105.469L62.6233 113.99L67.2117 121.981L88.2229 114.985L102.086 89.6321L98.3144 75.6778Z" fill="#E6E6E6"/>
<path d="M252.395 164.916V220.061C252.395 224.938 248.428 228.905 243.551 228.905H107.248C102.371 228.905 98.4036 224.938 98.4036 220.061V164.916C98.4036 160.039 102.371 156.071 107.248 156.071H243.551C248.428 156.071 252.395 160.039 252.395 164.916Z" fill="#000D0A"/>
<path d="M252.395 164.916V220.061C252.395 224.938 248.428 228.905 243.551 228.905H107.248C102.371 228.905 98.4036 224.938 98.4036 220.061V164.916C98.4036 160.039 102.371 156.071 107.248 156.071H243.551C248.428 156.071 252.395 160.039 252.395 164.916ZM243.551 227.865C247.861 227.865 251.355 224.371 251.355 220.061V192.259C251.355 172.848 235.619 157.112 216.208 157.112H107.248C102.938 157.112 99.444 160.606 99.444 164.916V220.061C99.444 224.371 102.938 227.865 107.248 227.865H243.551Z" fill="#3F3D56"/>
<path d="M159.589 189.388H141.786C141.337 189.388 140.972 189.754 140.972 190.202C140.972 190.651 141.337 191.016 141.786 191.016H159.589C160.038 191.016 160.403 190.651 160.403 190.202C160.403 189.754 160.038 189.388 159.589 189.388Z" fill="#BAFA3D"/>
<path d="M186.642 189.389H168.839C168.39 189.389 168.025 189.754 168.025 190.202C168.025 190.651 168.39 191.016 168.839 191.016H186.642C187.091 191.016 187.456 190.651 187.456 190.202C187.456 189.754 187.091 189.389 186.642 189.389Z" fill="#BAFA3D"/>
<path d="M159.589 198.288H141.786C141.337 198.288 140.972 198.653 140.972 199.102C140.972 199.55 141.337 199.916 141.786 199.916H159.589C160.038 199.916 160.403 199.55 160.403 199.102C160.403 198.653 160.038 198.288 159.589 198.288Z" fill="#BAFA3D"/>
<path d="M186.642 198.288H168.839C168.39 198.288 168.025 198.653 168.025 199.102C168.025 199.55 168.39 199.916 168.839 199.916H186.642C187.091 199.916 187.456 199.55 187.456 199.102C187.456 198.653 187.091 198.288 186.642 198.288Z" fill="#BAFA3D"/>
<path d="M214.508 199.102C214.508 198.653 214.143 198.288 213.694 198.288H195.891C195.443 198.288 195.077 198.653 195.077 199.102C195.077 199.551 195.443 199.916 195.891 199.916H213.694C214.143 199.916 214.508 199.551 214.508 199.102Z" fill="#BAFA3D"/>
<path d="M149.184 182.283C149.633 182.283 149.998 181.917 149.998 181.469C149.998 181.02 149.633 180.655 149.184 180.655H131.381C130.933 180.655 130.567 181.02 130.567 181.469C130.567 181.917 130.933 182.283 131.381 182.283H149.184Z" fill="#BAFA3D"/>
<path d="M201.614 181.952H219.417C219.866 181.952 220.231 181.586 220.231 181.138C220.231 180.689 219.866 180.324 219.417 180.324H201.614C201.165 180.324 200.8 180.689 200.8 181.138C200.8 181.586 201.165 181.952 201.614 181.952Z" fill="#BAFA3D"/>
<path d="M156.684 182.123H193.594C194.043 182.123 194.408 181.758 194.408 181.309C194.408 180.86 194.043 180.495 193.594 180.495H156.684C156.236 180.495 155.87 180.86 155.87 181.309C155.87 181.758 156.236 182.123 156.684 182.123Z" fill="#BAFA3D"/>
<path d="M171.206 206.373H153.403C152.955 206.373 152.589 206.738 152.589 207.187C152.589 207.636 152.955 208.001 153.403 208.001H171.206C171.655 208.001 172.02 207.636 172.02 207.187C172.02 206.738 171.655 206.373 171.206 206.373Z" fill="#BAFA3D"/>
<path d="M228.704 164.5V219.645C228.704 224.522 224.737 228.49 219.86 228.49H164.714C159.838 228.49 155.87 224.522 155.87 219.645V164.5C155.87 159.623 159.838 155.656 164.714 155.656H219.86C224.737 155.656 228.704 159.623 228.704 164.5Z" fill="#000D0A"/>
<path d="M228.704 164.5V219.645C228.704 224.522 224.737 228.49 219.86 228.49H164.714C159.838 228.49 155.87 224.522 155.87 219.645V164.5C155.87 159.623 159.838 155.656 164.714 155.656H219.86C224.737 155.656 228.704 159.623 228.704 164.5ZM216.439 227.449C222.638 227.449 227.664 222.424 227.664 216.224V191.843C227.664 172.432 211.928 156.696 192.517 156.696H164.714C160.405 156.696 156.911 160.19 156.911 164.5V211.951C156.911 220.511 163.849 227.449 172.409 227.449H216.439V227.449H216.439Z" fill="#3F3D56"/>
<path d="M199.628 178.178H181.825C181.376 178.178 181.011 177.813 181.011 177.364C181.011 176.915 181.376 176.55 181.825 176.55H199.628C200.077 176.55 200.442 176.915 200.442 177.364C200.442 177.813 200.077 178.178 199.628 178.178V178.178Z" fill="#BAFA3D"/>
<path d="M199.628 195.535H181.825C181.376 195.535 181.011 195.17 181.011 194.721C181.011 194.272 181.376 193.907 181.825 193.907H199.628C200.077 193.907 200.442 194.272 200.442 194.721C200.442 195.17 200.077 195.535 199.628 195.535V195.535Z" fill="#BAFA3D"/>
<path d="M190.784 219.466H172.981C172.532 219.466 172.167 219.101 172.167 218.652C172.167 218.204 172.532 217.839 172.981 217.839H190.784C191.233 217.839 191.598 218.204 191.598 218.652C191.598 219.101 191.233 219.466 190.784 219.466V219.466Z" fill="#BAFA3D"/>
<path d="M209.181 186.862H172.272C171.823 186.862 171.458 186.497 171.458 186.048C171.458 185.6 171.823 185.234 172.272 185.234H209.181C209.63 185.234 209.995 185.6 209.995 186.048C209.995 186.497 209.63 186.862 209.181 186.862V186.862Z" fill="#BAFA3D"/>
<path d="M218.328 133.942C218.328 116.739 203.788 107.276 187.18 102.794C165.886 97.047 150.29 108.676 156.031 133.942C157.332 139.669 160.444 146.357 164.296 152.078H194.862C205.072 145.431 218.328 147.295 218.328 133.942H218.328Z" fill="#BAFA3D"/>
<path d="M186.722 166.463C188.461 163.148 190.665 160.757 193.094 158.936H164.465C171.834 169.462 181.606 176.217 186.722 166.463Z" fill="#BAFA3D"/>
<path d="M183.419 115.526C185.257 115.526 186.747 117.016 186.747 118.854V125.51H180.091V118.854C180.091 117.016 181.581 115.526 183.419 115.526ZM188.411 125.51V118.854C188.411 116.097 186.176 113.862 183.419 113.862C180.662 113.862 178.427 116.097 178.427 118.854V125.51C176.589 125.51 175.099 127 175.099 128.838V137.157C175.099 138.995 176.589 140.485 178.427 140.485H188.411C190.249 140.485 191.739 138.995 191.739 137.157V128.838C191.739 127 190.249 125.51 188.411 125.51H188.411ZM178.427 127.174H188.411C189.33 127.174 190.075 127.919 190.075 128.838V137.157C190.075 138.076 189.33 138.821 188.411 138.821H178.427C177.508 138.821 176.763 138.076 176.763 137.157V128.838C176.763 127.919 177.508 127.174 178.427 127.174Z" fill="white"/>
<path d="M135.861 154.274C135.46 157.625 136.863 160.548 138.995 160.803C141.127 161.058 143.181 158.549 143.582 155.199C143.758 153.732 143.588 152.348 143.162 151.233L144.684 137.015L137.997 136.443L137.206 150.519C136.529 151.502 136.037 152.808 135.861 154.274Z" fill="#905830"/>
<path d="M137.466 69.4523C137.466 69.4523 144.749 67.3713 146.31 70.4927C147.871 73.6142 151.512 114.713 151.512 114.713L144.489 147.519L136.425 145.408L140.587 112.112L134.865 87.1405L137.466 69.4523Z" fill="#E6E6E6"/>
<path d="M30.4341 169.255C47.2425 169.255 60.8683 155.629 60.8683 138.821C60.8683 122.013 47.2425 108.387 30.4341 108.387C13.6258 108.387 0 122.013 0 138.821C0 155.629 13.6258 169.255 30.4341 169.255Z" fill="#BAFA3D"/>
<path d="M30.4342 125.197C32.5842 125.197 34.327 126.939 34.327 129.089V136.875H26.5415V129.089C26.5415 126.939 28.2844 125.197 30.4342 125.197ZM36.2734 136.875V129.089C36.2734 125.864 33.6591 123.25 30.4342 123.25C27.2094 123.25 24.5951 125.864 24.5951 129.089V136.875C22.4452 136.875 20.7024 138.618 20.7024 140.767V150.499C20.7024 152.649 22.4452 154.392 24.5951 154.392H36.2734C38.4233 154.392 40.1661 152.649 40.1661 150.499V140.767C40.1661 138.618 38.4232 136.875 36.2734 136.875H36.2734ZM24.5951 138.821H36.2734C37.3483 138.821 38.2197 139.693 38.2197 140.767V150.499C38.2197 151.574 37.3483 152.446 36.2734 152.446H24.5951C23.5202 152.446 22.6488 151.574 22.6488 150.499V140.767C22.6488 139.693 23.5202 138.821 24.5951 138.821Z" fill="white"/>
</svg>
